<svg id="BACKGROUND_1" data-name="BACKGROUND 1" xmlns="http://www.w3.org/2000/svg" xmlns:xlink="http://www.w3.org/1999/xlink" viewBox="0 0 886.59 344.74"><defs><style>.cls-1{fill:none;}.cls-2{fill:#1b4d82;}.cls-3{clip-path:url(#clip-path);}.cls-4{fill:#236199;}.cls-5{fill:#174977;}</style><clipPath id="clip-path"><rect class="cls-1" width="886.59" height="344.74"/></clipPath></defs><rect class="cls-2" width="886.59" height="344.74"/><g class="cls-3"><path class="cls-4" d="M682.38,360.68a20.19,20.19,0,0,1-4.88-3.5c-3.82-3.95-5.76-8.2-5.6-12.3a15.68,15.68,0,0,1,11.58-14.19,31.78,31.78,0,0,1,4.92-.67c2.85-.23,5.55-.45,7.54-2a11.43,11.43,0,0,0,3.2-5.15c.78-2.17,3-9.58-1.18-13.85l-2.14-2.17,3,0a20.6,20.6,0,0,1,16.92,9.47,19.68,19.68,0,0,1,1.87,16.94,19.43,19.43,0,0,1-11.72,12,30.17,30.17,0,0,1-9,1.65l-1.34.05a15.82,15.82,0,0,0-6,1,10.76,10.76,0,0,0-6,7.65,4.18,4.18,0,0,0,.39,3.31l2.31,3.94Z"/><path class="cls-5" d="M707.37,310.29a18.94,18.94,0,0,1,7.35,6.72,18.56,18.56,0,0,1-9.21,27.12,28.91,28.91,0,0,1-8.6,1.57c-2.78.13-5.14,0-7.77,1.12a12.08,12.08,0,0,0-6.69,8.53,5.46,5.46,0,0,0,.54,4.23,19.86,19.86,0,0,1-4.59-3.27c-3-3.1-5.41-7-5.25-11.38a14.36,14.36,0,0,1,10.63-13c4.35-1.07,9.42-.15,12.94-2.92a12.5,12.5,0,0,0,3.6-5.71c1.83-5,2.3-11.34-1.46-15.16a19.18,19.18,0,0,1,8.51,2.17m1.16-2.23h0a21.66,21.66,0,0,0-9.63-2.45l-6.11-.07,4.28,4.35c3.69,3.74,1.62,10.54.9,12.53a10.43,10.43,0,0,1-2.8,4.6c-1.69,1.33-4.09,1.53-6.86,1.75a32.77,32.77,0,0,0-5.12.7,17,17,0,0,0-12.54,15.37c-.17,4.44,1.89,9,6,13.22a21.61,21.61,0,0,0,5.18,3.72l8,4.4-4.63-7.88a3,3,0,0,1-.25-2.38,9.52,9.52,0,0,1,5.22-6.79,14.68,14.68,0,0,1,5.55-.87l1.36-.05a31,31,0,0,0,9.34-1.72,20.66,20.66,0,0,0,12.48-12.8,21,21,0,0,0-2-18,21.62,21.62,0,0,0-8.33-7.61Z"/><polygon class="cls-5" points="937.99 325.42 923.47 342.48 842.96 243.61 853.48 236.7 937.99 325.42"/><polygon class="cls-5" points="853.48 236.7 838.54 228.2 842.96 243.61 853.48 236.7"/><polygon class="cls-4" points="920.35 328.59 914.71 321.97 908.92 329.94 877.46 291.53 875.07 295.31 909.31 338.13 920.35 328.59"/><polygon class="cls-4" points="928.21 328.9 932.11 323.92 863.77 253.28 864.42 256.3 928.21 328.9"/><path class="cls-5" d="M838.54,228.2l14.94,8.5L938,325.42l-2.3,2.7h0l13,15.31-9.54,10.09-13.56-13.58-2.16,2.54-7.93-9.74-6.23,5.39-34.24-42.82,2.39-3.78L908.92,330l2.05-2.83-68-83.51-4.42-15.41M834.43,223l1.7,5.93,4.41,15.41.15.49.32.4,35.34,43.4-1,1.59L872.94,294l-1,1.51,1.12,1.4,34.25,42.82,1.63,2,2-1.71,4.27-3.69,6.29,7.73,1.91,2.34,2-2.3.39-.46,11.64,11.65,1.82,1.83,1.78-1.88,9.54-10.1,1.55-1.64-1.46-1.71L939,328.12l.91-1.07,1.47-1.72-1.56-1.64L855.3,235l-.25-.27-.33-.18L839.79,226l-5.36-3Z"/><path class="cls-4" d="M751.41,323.79l114.08-6L759.63,479Zm25,95.29,52.81-80.42-56.91,3Z"/><path class="cls-5" d="M863.07,319.14,760.68,475.05,752.73,325l110.34-5.84M775.34,423l56.28-85.7L771,340.49,775.34,423M867.9,316.37l-5,.26L752.6,322.47l-2.51.13.13,2.51,7.95,150.08.4,7.65,4.21-6.41L865.17,320.52l2.73-4.15Zm-94.29,26.49,53.18-2.81-49.35,75.14-3.83-72.33Z"/><rect class="cls-5" x="752.99" y="328.75" width="7.32" height="1.25" transform="translate(-16.5 40.84) rotate(-3.06)"/><rect class="cls-5" x="753.24" y="333.45" width="10.4" height="1.25" transform="translate(-16.74 40.94) rotate(-3.06)"/><rect class="cls-5" x="753.5" y="338.39" width="7.32" height="1.25" transform="translate(-17.01 40.88) rotate(-3.06)"/><rect class="cls-5" x="753.75" y="343.09" width="10.4" height="1.25" transform="translate(-17.26 40.99) rotate(-3.06)"/><polygon class="cls-4" points="504.11 262.86 448.42 349.32 531.83 396.8 587.85 309.44 504.11 262.86"/><polygon class="cls-4" points="493.99 267.44 571.15 296.24 551.98 388.6 473.24 367.8 493.99 267.44"/><path class="cls-5" d="M472.86,299.46l49.83,56.22-60.46,63.59S402,349,399.51,349.35c-1.9.27,38.87-35.09,57.17-50.89Z"/><polygon class="cls-4" points="456.68 298.46 464.47 309.8 472.86 299.46 456.68 298.46"/><path class="cls-5" d="M571.15,296.24l-.72,3.51,17.42,9.69-28.74,44.81L552,388.6l-12.74-3.36-7.41,11.56L500.53,379l-38.3,40.29s-57.84-67.44-62.5-69.85a.41.41,0,0,0-.22-.07h-.05c-1-.5,39.13-35.26,57.22-50.89l16.18,1,4.44,5,13.3-20.65L494,267.44l5.78,2.16,4.34-6.74,45.68,25.41,21.36,8m2.9-1.6-2-.75L550.84,286l-45.51-25.32-2.06-1.14-1.27,2-3.25,5-3.88-1.45-2.75-1-.59,2.87-3.29,15.93L477,300.33l-2.24-2.53-.69-.78-1-.06-16.17-1-1-.06-.78.67c-9.6,8.29-23.54,20.36-35.41,30.8-22.93,20.18-22.89,20.5-22.68,22.25l.15,1.33,1.2.64a2.78,2.78,0,0,0,.4.16c4.64,3.46,40.05,44,61.62,69.17l1.82,2.11,1.91-2L501,382.14,530.59,399l2.07,1.18,1.29-2,6.42-10,11,2.89,2.57.68.54-2.6,7-33.89L590,310.8l1.44-2.25-2.34-1.31-15.81-8.79.35-1.7.44-2.11Z"/><polygon class="cls-5" points="638.06 237.5 643.41 216.58 504.07 199.94 502.28 217.99 638.06 237.5"/><polygon class="cls-5" points="502.28 217.99 487.48 215.2 488.66 198 504.07 199.94 502.28 217.99"/><path class="cls-4" d="M487.48,215.2l-9.64-2.65a8,8,0,0,1-5.4-8.31h0a8,8,0,0,1,8.41-7.29l7.81,1.05Z"/><polygon class="cls-5" points="638.06 237.5 664.6 232.66 643.41 216.58 638.06 237.5"/><polygon class="cls-5" points="664.6 232.66 659.83 233.53 660.71 229.71 664.6 232.66"/><polygon class="cls-5" points="634.33 232.29 507.47 215.53 507.23 213.71 632.42 230.5 634.33 232.29"/><polygon class="cls-5" points="634.58 224.47 635.96 221.87 511.37 205.86 513.18 208.28 634.58 224.47"/><path class="cls-4" d="M499.74,213.56c.18-.15.52-10.64.52-10.64l-3-.2s-.9,11.32-.66,11.26S499.74,213.56,499.74,213.56Z"/><path class="cls-4" d="M493.18,213.31c.23-.54.9-12,.9-12l-2.31,1.47-.5,9Z"/><path class="cls-5" d="M643.41,216.58l21.19,16.08-4.77.87-21.77,4L502.28,218l-14.8-2.79-9.64-2.65a7.29,7.29,0,0,1-1.11-.48,8,8,0,0,1-4.29-7.83h0a8,8,0,0,1,8.41-7.29l7.81,1.05,15.41,1.94,139.34,16.64m1-2.42-.68-.08L504.37,197.45,489,195.51l-7.78-1-.1,0H481a10.53,10.53,0,0,0-5.42,19.86,9.57,9.57,0,0,0,1.47.63l.07,0,.07,0,9.63,2.66.1,0H487l14.79,2.79h.11L637.7,240l.41.06.4-.07,21.77-4,4.77-.87,5.61-1-4.54-3.45-21.19-16.08-.54-.42Z"/><path class="cls-5" d="M754.44,242.11c-17.94-9.31-27-33.32-27.41-34.33l-.38-1,17.84-5.47.3,1c.05.16,4.73,15.19,13.51,19.75h0c3.51,1.82,7.28,1.7,11.18-.38,4.82-2.56,7.91-6,9.16-10.24,2-6.71-1.26-13.43-1.8-14.47l-15.6-14.29,14.82-10.24-27.73-11.14,7.36-23.33L809,155.17l-.95,17.5-.38.29c-5.44,4.13-15.15,11.5-17.93,13.63,9.51,13.68,10,23.2,7.56,34-1.56,7-7.66,16.69-16.31,21.61a25.91,25.91,0,0,1-21.76,1.93A33.62,33.62,0,0,1,754.44,242.11Z"/><path class="cls-5" d="M808,155.9l-.87,16.24s-18.51,14-18.72,14.23c10.13,14.22,10.25,23.7,8,34s-15.87,29.7-36.74,22.79a31.13,31.13,0,0,1-4.68-2C737.12,232,728,207.42,728,207.42l15.81-4.85s4.74,15.54,14,20.36c3.43,1.78,7.48,2.09,12.14-.39,17.27-9.18,7.71-26.26,7.71-26.26l-14.78-13.53,15.34-10.6-28.63-11.5,6.76-21.43L808,155.9m2.15-1.47-1.51-.49L757,137.26l-2-.64-.63,2L747.63,160l-.57,1.82,1.77.71,25.07,10.08-12.18,8.41-2.13,1.47,1.91,1.75L776,197.56c.66,1.34,3.43,7.48,1.63,13.55-1.17,3.95-4.08,7.18-8.65,9.61-3.63,1.93-7,2.06-10.21.37-8.42-4.36-13-19-13-19.13l-.6-2-2,.6-15.81,4.85-2.09.64.76,2c.38,1,9.62,25.41,27.9,34.9a33.46,33.46,0,0,0,5,2.11,27.24,27.24,0,0,0,22.6-2c9.33-5.29,15.25-15.26,16.8-22.28,2.41-10.89,2-20.47-7.15-34l17.14-13,.76-.57.06-1L810,156l.09-1.58Z"/><polygon class="cls-4" points="759.42 144.39 756.28 153.84 802.74 159.26 759.42 144.39"/><path class="cls-4" d="M792.73,222.09S774,257,744.3,228.18l10.66,1S773.2,243.93,792.73,222.09Z"/><polygon class="cls-4" points="668.01 292.28 687.21 282.12 697.75 285.24 676.12 250.57 674.24 259.6 655.63 273.02 668.01 292.28"/><polygon class="cls-4" points="688.15 269.86 684.66 264.25 719.3 244.37 688.15 269.86"/><polygon class="cls-4" points="663.09 280.39 668.04 288.51 683.78 280.26 663.09 280.39"/><path class="cls-5" d="M719.3,244.37l-31.15,25.49,9.6,15.38-10.54-3.12L668,292.28,655.63,273l18.61-13.42,1.88-9,8.54,13.68,34.64-19.88m-1.25-2.18-32.54,18.68-7.25-11.63-3.32-5.32-1.28,6.13L672,258.13,654.16,271l-1.93,1.4,1.29,2,12.38,19.26,1.25,1.94,2-1.08,18.29-9.68,9.55,2.83,6.36,1.89-3.51-5.63-8.42-13.51,29.43-24.09-2.84-4.12Z"/><polygon class="cls-5" points="601.89 139.98 601.54 153.26 616.68 169.56 599.98 187.93 581.75 173.06 570.38 173.7 601.89 139.98"/><path class="cls-5" d="M600.79,142.67l-.3,11,14.79,15.92-15.4,16.94L582.1,172l-9.22.51,27.91-29.85m2.2-5.39-3.71,4-27.9,29.85-3.51,3.76,5.13-.29,8.41-.46,17.16,14,1.52,1.24,1.31-1.45L616.8,171l1.28-1.41-1.29-1.39-14.21-15.29.27-10.15.14-5.44Z"/><polygon class="cls-4" points="588.41 155.91 583.9 160.74 555.73 132.42 588.41 155.91"/><polygon class="cls-4" points="605.07 177.41 611.63 170.51 599.59 157.45 605.07 177.41"/><polygon class="cls-5" points="582.15 160.77 554.84 133.3 556.46 131.4 588.25 154.25 602.13 139.39 601.76 153.17 616.98 169.56 600 188.24 581.68 173.29 569.83 173.95 582.15 160.77"/><path class="cls-5" d="M600.79,142.67l-.3,11,14.79,15.92-15.4,16.94L582.1,172l-9.22.51,11-11.78-28.17-28.32,32.68,23.49,12.38-13.24m2.69-6.56L599,141l-10.87,11.63-30.88-22.2L554,134.19l26.46,26.6-9.36,10-4.28,4.57L573,175l8.24-.46,17,13.89,1.84,1.5,1.61-1.76,15.4-16.94,1.55-1.71-1.57-1.69L603,152.69l.27-9.95.18-6.63Z"/><polygon class="cls-4" points="641.12 107.33 622.22 123.75 605.82 111.71 643.91 82.29 686.8 132.34 697.38 80.22 866.08 51.67 869.27 68.98 715.41 97.67 699.05 179.25 641.12 107.33"/><path class="cls-5" d="M865.06,53.11,867.81,68,714.35,96.59l-16,79.78-57.07-70.85-19.12,16.62-14.25-10.46L643.74,84l43.78,51.11,10.92-53.81,166.62-28.2m2-2.89-2.45.41L698,78.83l-1.7.29L696,80.81l-9.9,48.76L645.64,82.38l-1.55-1.82L642.2,82l-35.83,27.67-2.64,2,2.69,2,14.25,10.46,1.62,1.19,1.52-1.32L641,109.13,696.39,178l3.37,4.18,1-5.27,15.67-78.11L868.27,70.44l2.46-.46-.45-2.46-2.74-14.86-.45-2.44Z"/><polygon class="cls-4" points="862.55 59.22 722.69 81.48 861.67 64 862.55 59.22"/><path class="cls-5" d="M628.38,36.44l25-20L634.72-14.87l23.4-11.64L680.57-.73l25.3-18.58L723.25,2.05,693.66,24.16c14.25,22.14,14.26,23.27,14.26,23.69,0,.68,0,1.81-18.86,17.9l-1.09.93L671.33,40.84,647.16,60.35Z"/><path class="cls-5" d="M705.65-17.59l15.8,19.42L692,23.86s14.68,22.78,14.69,24-18.42,16.93-18.42,16.93L671.63,39l-24.27,19.6L630.14,36.64l24.85-20-18.5-31,21.32-10.6L680.39,1l25.26-18.56m.44-3.44-1.93,1.42L680.76-2.43,659.7-26.6l-1.27-1.47-1.74.87L635.37-16.6,633-15.39l1.39,2.33,17.37,29.15L628.56,34.68l-1.94,1.56,1.54,2,17.23,21.93,1.57,2,2-1.6L671,42.7l15.1,23.45,1.56,2.42,2.19-1.87s4.67-4,9.24-8c10.07-8.91,10.06-9.47,10-10.81,0-.85,0-1.89-13.82-23.38L723,3.84l2.1-1.56-1.65-2L707.6-19.17,706.09-21Z"/><polygon class="cls-5" points="853.37 178.21 925.84 115.25 937.75 134.53 865.49 199.72 853.37 178.21"/><path class="cls-5" d="M925.55,117.17l10.58,17.13-70.31,63.43L855,178.48l70.59-61.31m.59-3.84-2.24,1.94-70.58,61.31-1.55,1.35,1,1.79L863.63,199l1.54,2.73,2.33-2.1,70.32-63.44,1.55-1.4-1.1-1.78-10.58-17.14-1.55-2.51Z"/><path class="cls-5" d="M865.94,137.18a15.6,15.6,0,1,1,4.74,1.56A15.57,15.57,0,0,1,865.94,137.18Z"/><path class="cls-5" d="M879.74,110.61a14.33,14.33,0,1,1-4.35-1.44,14.1,14.1,0,0,1,4.35,1.44m1.16-2.24h0a16.86,16.86,0,0,0-15.54,29.92,16.86,16.86,0,0,0,15.54-29.92Z"/><path class="cls-4" d="M776.55,33.57a5.65,5.65,0,1,1-4.69-6.47A5.65,5.65,0,0,1,776.55,33.57Z"/><path class="cls-4" d="M833.85,277.06a5.65,5.65,0,1,1-4.69-6.47A5.65,5.65,0,0,1,833.85,277.06Z"/><path class="cls-4" d="M687.83,204a8.1,8.1,0,1,1-6.72-9.27A8.1,8.1,0,0,1,687.83,204Z"/></g></svg>