<svg id="BACKGROUND_1" data-name="BACKGROUND 1" xmlns="http://www.w3.org/2000/svg" viewBox="0 0 202.46 222.37"><defs><style>.cls-1{fill:#fff;}.cls-2{fill:#1b4d82;}</style></defs><path class="cls-1" d="M105.91,112.72c0-2,0-4,0-6l0,0q8.56-4.38,17.1-8.79l9.26-4.8,6.83-3.54q9.18-4.75,18.37-9.48L200,58.21v82.88q0,11,0,22c0,.4,0,.41-.28.56q-9.69,5.58-19.35,11.22l-7.31,4.27c-2.61,1.52-5.22,3.05-7.84,4.56-1.64.95-3.28,1.88-4.93,2.81s-3.49,2-5.23,3l-7.14,4.18q-2.59,1.54-5.22,3.07L132,203l-23.7,13.79-2.4,1.38Zm48.44,48.83-.7,0A10.06,10.06,0,0,0,148.1,164a12.36,12.36,0,0,0-4.82,8.94c0,3.18,1.53,5.56,4,6.14a7.08,7.08,0,0,0,1.65.19,7.53,7.53,0,0,0,3.41-.84,12.82,12.82,0,0,0,7.48-10.15,6.29,6.29,0,0,0-1.33-5A5.28,5.28,0,0,0,154.35,161.55Zm-10-4.44c0,2.09,1.11,2.41,1.78,2.41h0a3.16,3.16,0,0,0,1.37-.39l2.91-1.41c2-1,3.92-1.92,5.89-2.85a3.24,3.24,0,0,0,2-3.2c0-2.14,0-4.12,0-6a12,12,0,0,1,2.37-7.08c2.25-3,4.62-5.95,7.05-8.9a54.69,54.69,0,0,0,7-10.13,24.39,24.39,0,0,0,2.63-15.77,11.17,11.17,0,0,0-8.45-9.43,16.7,16.7,0,0,0-4.36-.55,24.56,24.56,0,0,0-4.94.54A39.88,39.88,0,0,0,148,98.74c-7.92,4.42-13.45,10.08-16.92,17.31a31,31,0,0,0-2.91,12.22,2.43,2.43,0,0,0,.54,1.77,1.73,1.73,0,0,0,1.26.51,3,3,0,0,0,1.12-.25l3-1.24,5.79-2.37a3.32,3.32,0,0,0,2.21-3,15.15,15.15,0,0,1,1.93-6.54A18,18,0,0,1,158,107.93a6.11,6.11,0,0,1,.73-.05,3.75,3.75,0,0,1,3.77,2.5,9.84,9.84,0,0,1,.4,2.45,12.23,12.23,0,0,1-2.81,8.44c-1.54,2-3.17,4-4.75,6q-2,2.42-3.89,4.86A38.43,38.43,0,0,0,146.1,141a23.8,23.8,0,0,0-1.76,11.52Z"/><path class="cls-2" d="M198.75,60.22V141q0,10.89,0,21.76c-6.26,3.6-12.6,7.29-18.73,10.86l-2.52,1.46-5.13,3q-3.88,2.28-7.78,4.53c-1.63.95-3.27,1.87-4.91,2.8s-3.51,2-5.25,3c-2.41,1.39-4.8,2.8-7.19,4.21l-5.18,3-10.64,6.19-6,3.47-7,4.06-10.83,6.3-.55.32V112.71c0-1.71,0-3.47,0-5.22,5-2.57,10.41-5.35,16.46-8.47l9-4.66,7.1-3.68,18.36-9.48,16.83-8.67,10.41-5.37,7.41-3.82,6.05-3.12M130,131.78a4.22,4.22,0,0,0,1.59-.34l3-1.23,5.8-2.38a4.58,4.58,0,0,0,3-4.07,14,14,0,0,1,1.77-6,16.58,16.58,0,0,1,13-8.58,3.64,3.64,0,0,1,.57,0,2.53,2.53,0,0,1,2.6,1.66,9.17,9.17,0,0,1,.35,2.13,11.12,11.12,0,0,1-2.57,7.62c-1.53,2-3.16,4-4.74,6-1.28,1.58-2.61,3.22-3.89,4.86a40.15,40.15,0,0,0-5.49,9.18,25,25,0,0,0-1.85,12.05v1.33c0,1.09,0,2.14,0,3.2,0,3.46,2.5,3.64,3,3.64a4.58,4.58,0,0,0,1.91-.51l2.9-1.41c1.93-.94,3.92-1.92,5.89-2.85a4.5,4.5,0,0,0,2.69-4.33c0-2.14,0-4.1,0-6a10.81,10.81,0,0,1,2.13-6.37c2.23-3,4.59-5.91,7-8.85a55.65,55.65,0,0,0,7.13-10.35,26,26,0,0,0,2.75-16.55c-1-5.4-4.2-9-9.34-10.4a18.24,18.24,0,0,0-4.68-.6,26.17,26.17,0,0,0-5.18.57,41.19,41.19,0,0,0-11.9,4.57c-8.15,4.55-13.86,10.39-17.44,17.86a32,32,0,0,0-3,12.71,3.49,3.49,0,0,0,.89,2.66,2.9,2.9,0,0,0,2.14.89m18.93,48.76a8.67,8.67,0,0,0,4-1A14.17,14.17,0,0,0,161,168.48a7.48,7.48,0,0,0-1.62-6,6.59,6.59,0,0,0-5.05-2.19,7.63,7.63,0,0,0-.82,0,11.26,11.26,0,0,0-6.22,2.74,13.75,13.75,0,0,0-5.26,9.81V173c0,3.72,1.91,6.58,4.94,7.29a8.4,8.4,0,0,0,1.93.22m52.3-124.32c-.49.24-.84.4-1.18.58L184.16,65,156.92,79l-18.36,9.48q-8.06,4.17-16.1,8.34-8.53,4.41-17.09,8.79a1,1,0,0,0-.71,1.08c0,2.72,0,5.44,0,8.16V220.23c1.53-.87,2.89-1.63,4.25-2.42l17.79-10.36q8.31-4.83,16.61-9.67c4.13-2.4,8.23-4.85,12.36-7.24,3.37-1.95,6.78-3.84,10.16-5.78,4.32-2.5,8.61-5,12.92-7.54,7.19-4.18,14.37-8.37,21.57-12.51a1.59,1.59,0,0,0,.9-1.63q0-13.9,0-27.8V56.22ZM130,129.32c-.42,0-.59-.32-.57-1a29.44,29.44,0,0,1,2.79-11.74c3.57-7.44,9.29-12.79,16.41-16.77a38.93,38.93,0,0,1,11.2-4.31A24,24,0,0,1,164.5,95a15.36,15.36,0,0,1,4,.51c4.33,1.17,6.79,4.12,7.57,8.46a23.37,23.37,0,0,1-2.52,15,54.64,54.64,0,0,1-6.84,9.89c-2.42,2.94-4.83,5.9-7.09,9A13.24,13.24,0,0,0,157,145.6c0,2,0,4.06,0,6.09a2,2,0,0,1-1.28,2.07c-3,1.39-5.88,2.84-8.82,4.26a2.16,2.16,0,0,1-.83.27c-.41,0-.55-.37-.55-1.19v-4.64a22.44,22.44,0,0,1,1.67-11,37.65,37.65,0,0,1,5.15-8.6c2.85-3.65,5.84-7.18,8.65-10.85a13.58,13.58,0,0,0,3.06-9.27,11.14,11.14,0,0,0-.46-2.76,5,5,0,0,0-4.94-3.34,6.62,6.62,0,0,0-.88.06A19.09,19.09,0,0,0,143,116.5a16.67,16.67,0,0,0-2.09,7.07,2.11,2.11,0,0,1-1.44,2c-2.94,1.19-5.87,2.41-8.8,3.61a1.74,1.74,0,0,1-.65.16Zm18.93,48.76a5.89,5.89,0,0,1-1.37-.16c-1.85-.43-3.06-2.26-3-4.87a11.25,11.25,0,0,1,4.39-8.06,8.82,8.82,0,0,1,4.88-2.18l.58,0c3.1,0,4.61,2.58,4.23,5.38a11.68,11.68,0,0,1-6.81,9.21,6.3,6.3,0,0,1-2.86.71Z"/><path class="cls-1" d="M87.35,212.78l-9.66-5.6q-11.25-6.54-22.48-13.11c-1-.59-2-1.2-3-1.81-1.22-.73-2.43-1.46-3.66-2.17l-9.43-5.42-10.84-6.22q-5.86-3.39-11.71-6.82L8.9,167.18c-2.13-1.24-4.25-2.48-6.4-3.68l0,0v-.12q0-10.73,0-21.45l0-53.35V58.2l1.9.95L30.13,72.49,64.24,90.12l16.38,8.45L95,105.94a2,2,0,0,0,1,.49c.58.1.64.11.63,1.53q0,27,0,53.8V218.1Zm-42-51.51a5.26,5.26,0,0,0-5.43,4.27,9,9,0,0,0,.05,3.85,13.05,13.05,0,0,0,8,9.31,7.5,7.5,0,0,0,2.93.64h0a5.65,5.65,0,0,0,2.27-.46,5.4,5.4,0,0,0,3.32-5.59c.26-4.82-4.25-10.54-9.3-11.79A7.61,7.61,0,0,0,45.37,161.27Zm-4.59-13.13c0,.78,0,1.52,0,2.24a3.86,3.86,0,0,0,2.48,4.11c2.06,1,4.14,2,6.15,3.06l2.35,1.19a3.08,3.08,0,0,0,1.43.42h0c.65,0,1.74-.31,1.77-2.37,0-.8,0-1.59,0-2.38,0-1.75,0-3.55.08-5.32.07-2.27,1-3.75,2.72-4.54,1.5-.67,3.07-1.29,4.59-1.88,1.15-.45,2.3-.9,3.44-1.38,3.49-1.47,5.76-3.4,7.13-6.06,1.87-3.6,2.26-7.68,1.24-12.84-1.16-5.84-4.1-11.07-9-16A44.92,44.92,0,0,0,49.26,96.11a30.43,30.43,0,0,0-10.89-2.3,21.9,21.9,0,0,0-2.82.18,11.76,11.76,0,0,0-7.33,3.7c-3.09,3.35-3.66,7.45-3.82,11.39a2.9,2.9,0,0,0,2,2.8l1.62.69c2.17.9,4.34,1.81,6.52,2.68l.49.2a4.46,4.46,0,0,0,1.64.47c1.56,0,1.76-1.47,2-3.16.45-3.32,2.16-4.93,5.24-4.93a7.63,7.63,0,0,1,.82,0,15,15,0,0,1,5.92,1.94c4.7,2.56,7.41,5.58,8.55,9.53a11,11,0,0,1,.2,5.88c-.41,1.58-1.5,2.65-3.67,3.57-1,.43-2,.83-3.06,1.23-1.54.6-3.14,1.22-4.68,1.95a11.3,11.3,0,0,0-6.63,7.87,37.88,37.88,0,0,0-.62,4.91c-.06.71-.12,1.41-.2,2.12l-.13,1.24Z"/><path class="cls-2" d="M3.7,60.19l.1.06,14,7.26,11.73,6.07,10.89,5.63L47.77,83l6.41,3.32,7.35,3.8.89.46,17.64,9.1,8.16,4.19L94.28,107a3.4,3.4,0,0,0,1.06.58V108c0,17.92,0,36.14,0,53.76V216l-2.89-1.68-4.73-2.74q-4.71-2.72-9.39-5.44Q67.06,199.57,55.83,193c-1-.59-2-1.19-3-1.8-1.21-.72-2.45-1.47-3.69-2.19l-9.42-5.4-10.86-6.24Q22.94,174,17,170.51l-6.2-3.62-1.26-.74c-1.92-1.12-3.9-2.27-5.89-3.39,0-6.63,0-13.45,0-20.85q0-15.39,0-30.79V60.19m33,57c2.64,0,3-2.54,3.21-4.23.46-3.4,2.29-3.86,4-3.86a5.74,5.74,0,0,1,.71,0,13.62,13.62,0,0,1,5.44,1.79c4.45,2.42,6.91,5.13,8,8.79a9.8,9.8,0,0,1,.18,5.24c-.3,1.18-1.15,2-2.95,2.74-1,.42-2,.82-3,1.21-1.57.61-3.19,1.24-4.77,2a12.47,12.47,0,0,0-7.3,8.71,39.91,39.91,0,0,0-.65,5.08c-.06.7-.12,1.39-.19,2.08L39,149.2l.53.06c0,.35,0,.69,0,1a5.09,5.09,0,0,0,3.18,5.32c2.06,1,4.14,2.05,6.16,3.07l2.31,1.17a4.48,4.48,0,0,0,2,.55c.49,0,3-.17,3-3.59,0-.81,0-1.61,0-2.41,0-1.73,0-3.52.08-5.26.07-2.31,1.1-3.06,2-3.46,1.47-.65,3-1.26,4.53-1.85,1.13-.45,2.31-.91,3.47-1.4,3.77-1.58,6.23-3.69,7.75-6.62,2.63-5.07,2-10.22,1.35-13.65-1.21-6.09-4.26-11.52-9.32-16.59A46.15,46.15,0,0,0,49.7,95a31.46,31.46,0,0,0-11.33-2.38,22.6,22.6,0,0,0-3,.19,13,13,0,0,0-8.07,4.08c-3.38,3.65-4,8.21-4.15,12.18a4.13,4.13,0,0,0,2.75,4l1.66.69c2.12.89,4.32,1.81,6.5,2.68l.48.2a5.44,5.44,0,0,0,2.11.56m14.22,63.42a7,7,0,0,0,2.76-.56,6.63,6.63,0,0,0,4.06-6.71c.26-5.42-4.59-11.6-10.23-13a9.09,9.09,0,0,0-2.11-.26,6.53,6.53,0,0,0-6.64,5.26,10.43,10.43,0,0,0,.06,4.39,14.44,14.44,0,0,0,8.69,10.14,8.78,8.78,0,0,0,3.41.74M1.24,56.23V88.56l0,53.35q0,10.72,0,21.44a1.18,1.18,0,0,0,.67,1.22C4.48,166,7,167.52,9.6,169c6,3.5,12,7,18,10.5,6.75,3.9,13.52,7.75,20.28,11.64,2.25,1.3,4.45,2.68,6.69,4q11.23,6.56,22.48,13.1,7.05,4.11,14.13,8.18l6.58,3.82V173.37q0-32.67,0-65.34c0-1.34,0-2.53-1.65-2.81-.22,0-.4-.27-.61-.38-4.78-2.46-9.57-4.9-14.35-7.37L62.66,87.92,48.9,80.8q-9.1-4.71-18.2-9.4L4.93,58.06c-1.18-.61-2.39-1.19-3.69-1.83Zm35.43,58.46a6.52,6.52,0,0,1-1.68-.58c-2.72-1.09-5.42-2.23-8.12-3.36a1.7,1.7,0,0,1-1.24-1.62c.15-3.87.73-7.62,3.5-10.61a10.52,10.52,0,0,1,6.58-3.31A19.9,19.9,0,0,1,38.37,95a29.43,29.43,0,0,1,10.45,2.22,43.56,43.56,0,0,1,15.48,10,29.8,29.8,0,0,1,8.64,15.33c.82,4.11.88,8.17-1.12,12a12.17,12.17,0,0,1-6.52,5.48c-2.67,1.13-5.4,2.1-8,3.27a5.88,5.88,0,0,0-3.45,5.63c-.09,2.57-.07,5.15-.1,7.72,0,.8-.14,1.16-.53,1.16a2.16,2.16,0,0,1-.88-.29c-2.84-1.43-5.66-2.89-8.52-4.26a2.69,2.69,0,0,1-1.79-2.9c.1-1.15,0-2.3,0-3.46l-.24,0a68.7,68.7,0,0,1,.79-6.9,10.08,10.08,0,0,1,6-7c2.5-1.18,5.14-2.07,7.7-3.16,2-.87,3.78-2.07,4.37-4.39a12.21,12.21,0,0,0-.21-6.54c-1.4-4.87-4.86-7.93-9.14-10.26a16.15,16.15,0,0,0-6.41-2.09c-.31,0-.62,0-.92,0-3.67,0-5.93,2.07-6.46,6-.21,1.56-.29,2.1-.77,2.1Zm14.22,63.42a6.24,6.24,0,0,1-2.45-.55,11.9,11.9,0,0,1-7.26-8.47,7.9,7.9,0,0,1,0-3.32,4,4,0,0,1,4.22-3.27,6.25,6.25,0,0,1,1.51.19c4.64,1.15,8.62,6.47,8.37,10.58a4.24,4.24,0,0,1-2.57,4.48,4.54,4.54,0,0,1-1.79.36Z"/><path class="cls-1" d="M101.24,98.77a.6.6,0,0,1-.19-.07q-8.64-4.52-17.3-9l-8-4.11-7.4-3.81L55.55,75.17l-8-4.12L15.14,54.28,8,50.59l3.74-1.92L35.14,36.54l11.65-6,9.62-4.94L66.84,20.2Q75.72,15.62,84.59,11l9.55-4.94c2.33-1.21,4.66-2.42,7-3.6l.11,0q11.44,5.88,22.86,11.79l26.51,13.69q3.83,2,7.63,3.95l10,5.17,11.7,6,8.77,4.51,5.38,2.79.42.22-1.45.76L180.27,58,166.5,65.06,158,69.44l-12.38,6.38-11.56,6-9.62,5L105,96.84c-1.19.61-2.39,1.22-3.58,1.86A.42.42,0,0,1,101.24,98.77Zm27.51-38.93a13.18,13.18,0,0,0-3.45.49,10.37,10.37,0,0,0-5.57,3.43,5,5,0,0,0,.26,6.92c2.1,2.18,4.71,2.52,7,2.57,3.61-.17,6.09-1.07,8.13-2.9a5.76,5.76,0,0,0,2-5,5.7,5.7,0,0,0-3.22-4.26A11.19,11.19,0,0,0,128.75,59.84ZM90.29,32.75a11.16,11.16,0,0,1,6.27,2.09,4.49,4.49,0,0,1,2.25,4.6c-.19,1.38-.43,2.78-.67,4.13-.19,1.06-.38,2.11-.54,3.16-.86,5.63,1.07,10,5.75,12.85l1.62,1c1.37.84,2.73,1.69,4.1,2.52a3.32,3.32,0,0,0,1.76.52,3.24,3.24,0,0,0,1.76-.54l3.81-2.42q2.09-1.31,4.15-2.63a2.18,2.18,0,0,0,1.18-1.75,2.24,2.24,0,0,0-1.24-1.77l-1.68-1c-1-.62-2-1.2-3-1.87a13.93,13.93,0,0,1-3-2.75c-.83-1.11-.57-2.64-.29-4.25.14-.76.26-1.45.39-2.14.34-1.82.69-3.71.88-5.6a11.07,11.07,0,0,0-2.88-8.9,20.54,20.54,0,0,0-9.08-5.59,26.34,26.34,0,0,0-8.34-1.34A37.37,37.37,0,0,0,80.8,23.56,39.3,39.3,0,0,0,72.16,28c-3.27,2.19-7.35,5.31-10,10-2.16,3.9-2.29,7.7-.39,11.3a17.74,17.74,0,0,0,6.33,6.34,2.48,2.48,0,0,0,1.37.42h0a2.89,2.89,0,0,0,1.7-.6c.5-.35,2.5-1.81,2.5-1.81l1.51-1.08L78.79,50a2.09,2.09,0,0,0,1-1.61,2.15,2.15,0,0,0-1-1.68l-.15-.11c-.36-.29-.71-.57-1-.86-2.35-2.29-2.49-4.34-.48-6.87a13.34,13.34,0,0,1,2.25-2.18,17.1,17.1,0,0,1,10.42-3.94Z"/><path class="cls-2" d="M101.22,3.83c7.47,3.83,15,7.74,22.36,11.52l5.71,3q4.65,2.41,9.32,4.81L150.06,29l7.64,4,10,5.17,11.67,6,8.81,4.52,3.7,1.92-6.41,3.3-5.75,3-7.19,3.71L165.94,64l-8.23,4.24-12.64,6.52L133.13,80.9q-4.62,2.4-9.25,4.79-6.06,3.15-12.14,6.28l-6.13,3.16-1.26.65c-1,.52-2.08,1.06-3.12,1.62-5.41-2.82-11.1-5.78-16.91-8.78-2.68-1.39-5.36-2.76-8-4.14L68.92,80.7,56.18,74.11l-8-4.16-11.43-5.9-7.09-3.67L24.44,57.7l-8.73-4.51-5-2.58,0,0,1.61-.83L29.17,41l6.56-3.4,11.63-6,9.71-5,10.34-5.32q8.66-4.45,17.3-8.94L93,8l1.72-.89c2.12-1.1,4.31-2.23,6.48-3.32M69.5,57.33a4.06,4.06,0,0,0,2.42-.84l1.5-1.08,1-.73L76,53.54q1.77-1.26,3.52-2.54A3.27,3.27,0,0,0,81,48.42a3.38,3.38,0,0,0-1.44-2.67l-.17-.13a10.55,10.55,0,0,1-.89-.75c-1.89-1.84-2-3.2-.38-5.22a12.81,12.81,0,0,1,2-2A16,16,0,0,1,89.87,34h.42a9.87,9.87,0,0,1,5.58,1.89,3.22,3.22,0,0,1,1.72,3.41c-.18,1.34-.43,2.73-.66,4.07-.19,1-.38,2.12-.54,3.19-.94,6.08,1.25,11,6.31,14.09l1.64,1q2,1.28,4.09,2.52a4.51,4.51,0,0,0,2.4.7,4.42,4.42,0,0,0,2.42-.73l3.81-2.41,4.15-2.64A3.26,3.26,0,0,0,123,56.29a3.3,3.3,0,0,0-1.82-2.81c-.56-.35-1.13-.69-1.7-1-1-.61-2-1.17-2.87-1.81a12.7,12.7,0,0,1-2.77-2.48c-.48-.65-.35-1.68-.06-3.32V44.8c.12-.69.24-1.37.37-2.06.34-1.85.7-3.76.9-5.7a12.44,12.44,0,0,0-3.2-9.85,21.61,21.61,0,0,0-9.6-5.94,27.65,27.65,0,0,0-8.73-1.4A38.83,38.83,0,0,0,80.38,22.4,41.29,41.29,0,0,0,71.47,27c-3.38,2.27-7.61,5.51-10.35,10.47-2.35,4.23-2.49,8.54-.41,12.47a18.94,18.94,0,0,0,6.75,6.81,3.78,3.78,0,0,0,2,.62M127,74.48h.09c3.83-.19,6.54-1.18,8.8-3.22a7,7,0,0,0,2.45-6.05A6.88,6.88,0,0,0,134.49,60a12.46,12.46,0,0,0-5.74-1.41,14,14,0,0,0-3.78.54,11.55,11.55,0,0,0-6.2,3.83,6.25,6.25,0,0,0,.34,8.56,10.57,10.57,0,0,0,7.83,2.94H127M101.29,1.23a1.67,1.67,0,0,0-.69.15c-2.91,1.47-5.81,3-8.71,4.48L66.28,19.11,46.23,29.42Q37.13,34.11,28,38.83L11.13,47.58l-5.83,3,.9.5,8.38,4.31L28.5,62.57,47,72.14,67.79,82.89c5.13,2.64,10.27,5.26,15.4,7.91q8.66,4.49,17.29,9a1.65,1.65,0,0,0,.76.21,1.61,1.61,0,0,0,.75-.21c1.57-.85,3.16-1.65,4.75-2.47L125,87.88l21.18-11q10.43-5.4,20.87-10.76l13.77-7.11,12.81-6.59c1.14-.59,2.26-1.21,3.51-1.88-2.73-1.41-5.29-2.76-7.87-4.08-6.82-3.52-13.65-7-20.47-10.53-5.88-3-11.75-6.09-17.63-9.13L130.42,16.12q-14.34-7.41-28.69-14.8a1,1,0,0,0-.44-.09ZM69.5,54.86a1.22,1.22,0,0,1-.7-.22,16.46,16.46,0,0,1-5.92-5.89c-1.81-3.43-1.43-6.84.39-10.13,2.27-4.1,5.74-7,9.58-9.61a38,38,0,0,1,8.36-4.29,36.51,36.51,0,0,1,12.28-2.41,25.3,25.3,0,0,1,8,1.27A19.38,19.38,0,0,1,110,28.84a10,10,0,0,1,2.57,8c-.26,2.54-.81,5.06-1.25,7.59-.31,1.81-.66,3.7.5,5.26a15.34,15.34,0,0,0,3.31,3c1.5,1.07,3.14,1.94,4.7,2.91.88.55.89.91.06,1.44-2.65,1.7-5.31,3.36-8,5a2,2,0,0,1-1.1.35,2.18,2.18,0,0,1-1.12-.34c-1.91-1.16-3.81-2.35-5.71-3.53-4.36-2.69-6-6.64-5.18-11.61.37-2.44.88-4.86,1.21-7.31a5.7,5.7,0,0,0-2.79-5.79,12.35,12.35,0,0,0-6.95-2.3h-.46a18.39,18.39,0,0,0-11.15,4.19,14.7,14.7,0,0,0-2.46,2.4c-2.41,3-2.2,5.8.58,8.51a13.89,13.89,0,0,0,1.25,1c.66.52.68.84,0,1.34-1.68,1.23-3.38,2.44-5.08,3.66l-2.49,1.81a1.71,1.71,0,0,1-1,.37ZM127,72a8.18,8.18,0,0,1-6.11-2.19,3.78,3.78,0,0,1-.19-5.3,9.1,9.1,0,0,1,4.93-3,11.82,11.82,0,0,1,3.13-.44,9.84,9.84,0,0,1,4.61,1.13c3.06,1.57,3.47,4.91.9,7.22C132.32,71.18,130,71.87,127,72Z"/><path class="cls-1" d="M145.57,152.46a22.44,22.44,0,0,1,1.67-11,37.65,37.65,0,0,1,5.15-8.6c2.85-3.65,5.84-7.18,8.65-10.85a13.58,13.58,0,0,0,3.06-9.27,11.14,11.14,0,0,0-.46-2.76,5.11,5.11,0,0,0-5.82-3.28A19.09,19.09,0,0,0,143,116.5a16.67,16.67,0,0,0-2.09,7.07,2.11,2.11,0,0,1-1.44,2c-2.94,1.19-5.87,2.41-8.8,3.61-.89.36-1.25.13-1.22-.84a29.44,29.44,0,0,1,2.79-11.74c3.57-7.44,9.29-12.79,16.41-16.77a38.93,38.93,0,0,1,11.2-4.31,18.89,18.89,0,0,1,8.72,0c4.33,1.17,6.79,4.12,7.57,8.46a23.37,23.37,0,0,1-2.52,15,54.64,54.64,0,0,1-6.84,9.89c-2.42,2.94-4.83,5.9-7.09,9A13.24,13.24,0,0,0,157,145.6c0,2,0,4.06,0,6.09a2,2,0,0,1-1.28,2.07c-3,1.39-5.88,2.84-8.82,4.26-1.07.52-1.38.31-1.38-.92Z"/><path class="cls-1" d="M144.5,173.05a11.25,11.25,0,0,1,4.39-8.06,8.82,8.82,0,0,1,4.88-2.18c3.5-.34,5.21,2.38,4.81,5.35a11.68,11.68,0,0,1-6.81,9.21,6.07,6.07,0,0,1-4.23.55C145.69,177.49,144.48,175.66,144.5,173.05Z"/><path class="cls-1" d="M41.76,147a68.7,68.7,0,0,1,.79-6.9,10.08,10.08,0,0,1,6-7c2.5-1.18,5.14-2.07,7.7-3.16,2-.87,3.78-2.07,4.37-4.39a12.21,12.21,0,0,0-.21-6.54c-1.4-4.87-4.86-7.93-9.14-10.26a16.15,16.15,0,0,0-6.41-2.09c-4.21-.36-6.81,1.71-7.38,6-.35,2.62-.34,2.36-2.45,1.52-2.72-1.09-5.42-2.23-8.12-3.36a1.7,1.7,0,0,1-1.24-1.62c.16-3.87.73-7.62,3.5-10.61a10.52,10.52,0,0,1,6.58-3.31c4.57-.6,8.88.44,13.11,2.05a43.56,43.56,0,0,1,15.48,10,29.8,29.8,0,0,1,8.64,15.33c.82,4.11.88,8.17-1.12,12a12.17,12.17,0,0,1-6.52,5.48c-2.67,1.13-5.4,2.1-8,3.27a5.88,5.88,0,0,0-3.45,5.63c-.09,2.57-.07,5.15-.1,7.72,0,1.23-.32,1.42-1.41.87-2.84-1.43-5.66-2.89-8.52-4.26a2.69,2.69,0,0,1-1.79-2.9c.1-1.15,0-2.3,0-3.46Z"/><path class="cls-1" d="M55.25,173.27a4.24,4.24,0,0,1-2.57,4.48,5.31,5.31,0,0,1-4.24-.19,11.9,11.9,0,0,1-7.26-8.47,7.9,7.9,0,0,1,0-3.32c.49-2.53,2.92-3.77,5.73-3.08C51.52,163.84,55.5,169.16,55.25,173.27Z"/><path class="cls-1" d="M89.83,31.53a18.39,18.39,0,0,0-11.15,4.19,14.7,14.7,0,0,0-2.46,2.4c-2.41,3-2.2,5.8.58,8.51a13.89,13.89,0,0,0,1.25,1c.66.52.68.84,0,1.34-1.68,1.23-3.38,2.44-5.08,3.66l-2.49,1.81a1.4,1.4,0,0,1-1.69.15,16.46,16.46,0,0,1-5.92-5.89c-1.81-3.43-1.43-6.84.39-10.13,2.27-4.1,5.74-7,9.57-9.61a38.27,38.27,0,0,1,8.37-4.29c6.62-2.38,13.35-3.42,20.24-1.14A19.38,19.38,0,0,1,110,28.84a10,10,0,0,1,2.57,8c-.26,2.54-.81,5.06-1.25,7.59-.31,1.81-.66,3.7.5,5.26a15.34,15.34,0,0,0,3.31,3c1.5,1.07,3.14,1.94,4.7,2.91.88.55.89.91.06,1.44-2.65,1.7-5.31,3.36-8,5a1.94,1.94,0,0,1-2.22,0c-1.91-1.16-3.81-2.35-5.71-3.53-4.36-2.69-6-6.64-5.18-11.61.37-2.44.88-4.86,1.21-7.31a5.7,5.7,0,0,0-2.79-5.79A12.17,12.17,0,0,0,89.83,31.53Z"/><path class="cls-1" d="M127,72a8.18,8.18,0,0,1-6.11-2.19,3.78,3.78,0,0,1-.19-5.3,9.1,9.1,0,0,1,4.93-3,10.31,10.31,0,0,1,7.74.69c3.06,1.57,3.47,4.91.9,7.22C132.32,71.18,130,71.87,127,72Z"/></svg>