<svg id="BACKGROUND_1" data-name="BACKGROUND 1" xmlns="http://www.w3.org/2000/svg" viewBox="0 0 200 208.1"><defs><style>.cls-1{fill:#fff;}.cls-2{fill:#1b4d82;}</style></defs><path class="cls-1" d="M169.88,160.51a4,4,0,0,1-1.38-.25,3.27,3.27,0,0,1-.67-1.21c-1.27-3.62-2.49-7.26-3.72-10.9q-1.08-3.22-2.18-6.45l-.06-.18a38.37,38.37,0,0,0-1.8-4.6,3.63,3.63,0,0,0-1.65-1.46c-.16-.1-.33-.19-.47-.29l-1.41-1-.61,1.61c-.07.17-.17.35-.26.53a3.33,3.33,0,0,0-.53,2.35c.58,2.38,1.28,4.75,2,7.05l.74,2.54.51,1.79q1.4,4.81,2.75,9.63a1,1,0,0,1,0,.14c-3.23-.45-6.68-2.95-7.47-5.59-1.69-5.7-3.36-11.81-5.26-19.23-.87-3.4-1.68-6.89-2.45-10.27-.54-2.3-1.07-4.61-1.62-6.91-.13-.53-.65-2.29-2-2.64a1.93,1.93,0,0,0-.49-.06,4.17,4.17,0,0,0-2.51,1.27c-2.27,2.13-4.5,4.28-6.8,6.5l-.88.85a27.1,27.1,0,0,1-2.42-8.92,5.45,5.45,0,0,1,.88-2.79c4.25-7,8.82-14.41,14-22.63a3.63,3.63,0,0,0,.05-4.24c-1.29-2.09-2.51-4.2-3.8-6.44l-.44-.75,7.61,0c5.86,0,11.72,0,17.59,0h5.93a2.62,2.62,0,0,1,.37,0l0,.13a20.07,20.07,0,0,0,6.11,11.08,11.23,11.23,0,0,1,1,1.19c.23.3.46.6.71.88a44.45,44.45,0,0,1,9.66,18.1c2.4,9.2,5,18.51,7.5,27.52l2.09,7.55c.34,1.2-.18,1.51-.46,1.68a45,45,0,0,1-5.19,2.77h0a2.1,2.1,0,0,1-.16-.39c-1.85-5.77-3.8-11.56-5.63-17a12.31,12.31,0,0,0-1.52-3.15,3.62,3.62,0,0,0-2.5-1.41,1.61,1.61,0,0,0-.82.21,3.41,3.41,0,0,0-1.58,2.94,29.63,29.63,0,0,0,1,5.08c1.6,5.59,3.07,10.58,4.52,15.24.25.81.09.92-.15,1.08l-1,.66a33.24,33.24,0,0,1-4,2.48,5.36,5.36,0,0,1-.63.26,6.92,6.92,0,0,1-.25-.73c-.65-2.23-1.28-4.46-1.91-6.7s-1.18-4.22-1.8-6.32-1.2-3.82-2-6a5.81,5.81,0,0,0-1.22-2.23,3.87,3.87,0,0,0-2.4-1.22,1.67,1.67,0,0,0-.67.14,3.33,3.33,0,0,0-1.9,2.89,24.48,24.48,0,0,0,.86,5.15c1.44,5,3,10.23,4.84,16,.57,1.82.21,2.53-.59,3.14A5.86,5.86,0,0,1,169.88,160.51Z"/><path class="cls-2" d="M142.26,79.32h5.56c5.79,0,11.59,0,17.39,0h5.13a21.61,21.61,0,0,0,6.3,10.84,11.73,11.73,0,0,1,.9,1.06q.36.48.75.93a43.28,43.28,0,0,1,9.38,17.57c2.4,9.23,5,18.57,7.52,27.61.69,2.49,1.39,5,2.08,7.48,0,.1,0,.17,0,.23-1.18.72-2.4,1.4-3.67,2-1.75-5.45-3.57-10.87-5.29-15.93a14.27,14.27,0,0,0-1.69-3.48,4.92,4.92,0,0,0-3.6-2,2.93,2.93,0,0,0-1.49.39,4.74,4.74,0,0,0-2.24,4.25,32.43,32.43,0,0,0,1,5.3c1.59,5.55,3.06,10.5,4.49,15.13l-.56.38c-1,.72-2.06,1.4-3.08,2-.57-2-1.13-4-1.68-5.91s-1.19-4.23-1.8-6.35-1.25-3.94-2-6.09a7.11,7.11,0,0,0-1.53-2.72,5.22,5.22,0,0,0-3.36-1.62,3.23,3.23,0,0,0-1.19.23,4.62,4.62,0,0,0-2.71,4.22,25.86,25.86,0,0,0,.9,5.43c1.45,5,3,10.25,4.85,16,.4,1.28.21,1.43-.12,1.68a4.64,4.64,0,0,1-2.72,1.16,2.76,2.76,0,0,1-.57-.06,3.51,3.51,0,0,1-.22-.5c-1.26-3.6-2.5-7.29-3.7-10.85-.73-2.16-1.46-4.33-2.2-6.49l-.06-.18a37.42,37.42,0,0,0-1.86-4.76,4.84,4.84,0,0,0-2.19-2l-.36-.21-2.82-2-1.22,3.22c0,.08-.13.26-.2.4a4.6,4.6,0,0,0-.64,3.28c.59,2.4,1.29,4.79,2,7.1.25.84.5,1.69.74,2.53l.5,1.73c.72,2.51,1.44,5,2.15,7.52-2-.87-3.78-2.46-4.24-4-1.69-5.67-3.36-11.76-5.25-19.18-.87-3.38-1.67-6.85-2.45-10.22-.52-2.27-1.06-4.63-1.62-6.94-.22-.92-.95-3.1-2.92-3.62a3.34,3.34,0,0,0-.84-.11,5.33,5.33,0,0,0-3.42,1.63c-2.1,2-4.13,3.93-6.27,6a21.94,21.94,0,0,1-1.59-6.64,4.16,4.16,0,0,1,.7-2c4.25-7,8.82-14.42,14-22.62a4.93,4.93,0,0,0,.05-5.65c-1-1.68-2-3.38-3.05-5.14m-2.82-2.68c-.51,0-1,0-1.77.07,1.86,3.2,3.55,6.21,5.37,9.15a2.31,2.31,0,0,1,0,2.83q-7.08,11.27-14,22.65a6.65,6.65,0,0,0-1.08,3.54c.19,3.9,1.71,7.46,3.27,11.18,3.13-3,6.08-5.87,9.09-8.7a3.07,3.07,0,0,1,1.59-.91l.15,0c.46.12.85,1,1,1.66,1.38,5.73,2.62,11.5,4.07,17.21,1.65,6.45,3.38,12.89,5.28,19.27,1.06,3.57,5.78,6.62,9.76,6.62a5.15,5.15,0,0,0,.56,0,16.83,16.83,0,0,0-.32-1.89c-1.07-3.81-2.17-7.62-3.27-11.43-.91-3.18-1.89-6.34-2.68-9.54-.15-.6.47-1.39.74-2.09.58.41,1.41.7,1.69,1.26a37.26,37.26,0,0,1,1.79,4.61c2,5.79,3.89,11.59,5.91,17.36.27.78.82,1.8,1.49,2a5.42,5.42,0,0,0,1.82.32,7.26,7.26,0,0,0,4.34-1.7c1.63-1.24,1.62-2.81,1.05-4.61q-2.51-8-4.83-16a22.83,22.83,0,0,1-.8-4.87,2,2,0,0,1,1.07-1.57.41.41,0,0,1,.16,0,2.68,2.68,0,0,1,1.44.81,4.62,4.62,0,0,1,.92,1.74c.69,2,1.37,4,2,6,1.26,4.34,2.44,8.7,3.71,13,.35,1.2.67,1.74,1.32,1.74a3.46,3.46,0,0,0,1.42-.45,45.19,45.19,0,0,0,5.15-3.22,2,2,0,0,0,.69-2.6c-1.57-5-3.06-10.12-4.51-15.21a27.59,27.59,0,0,1-1-4.85,2.1,2.1,0,0,1,.93-1.65.26.26,0,0,1,.14,0,2.37,2.37,0,0,1,1.4.84,11.65,11.65,0,0,1,1.36,2.82c1.91,5.63,3.8,11.27,5.61,16.93.28.87.7,1.37,1.33,1.37a1.59,1.59,0,0,0,.69-.17,49.72,49.72,0,0,0,5.34-2.85,2.58,2.58,0,0,0,1-3.18c-3.23-11.67-6.53-23.33-9.58-35.05a46,46,0,0,0-9.95-18.63c-.61-.71-1.13-1.51-1.8-2.16a19,19,0,0,1-5.73-10.35c-.17-1-.7-1.25-1.7-1.25h-5.87c-8.58,0-17.17,0-25.75,0Z"/><path class="cls-1" d="M58.75,128.23l-8.28-.67L43,126.9q-6.71-.6-13.42-1.15c-.36,0-.36,0-.63-.59a22.92,22.92,0,0,0-2.75-4.56c-1.26-1.6-2.62-3.15-3.94-4.64-.71-.81-1.42-1.62-2.11-2.44A36.93,36.93,0,0,1,12.57,100c-3.71-12.43-7.49-24.69-11-36.19a2.21,2.21,0,0,1,1-3A44.42,44.42,0,0,1,6.8,58.56l.14-.05a3.87,3.87,0,0,1,.19.44c2,5.74,4.08,11.48,5.87,16.35a16.8,16.8,0,0,0,1.77,3.52,3.38,3.38,0,0,0,2.53,1.37,1.91,1.91,0,0,0,.54-.08,3,3,0,0,0,1.77-2.94,22.17,22.17,0,0,0-.89-4.46c-1.87-6-3.49-11-5.08-15.76-.33-1-.09-1.15.21-1.35,1.59-1.1,3.29-2.25,5-3.25a1.46,1.46,0,0,1,.39-.17,4.22,4.22,0,0,1,.23.56c1.61,5.32,3.22,10.47,4.8,15.32a33.6,33.6,0,0,0,2.18,5.23,3.6,3.6,0,0,0,1.86,1.46c.19.09.38.18.55.28l1.23.74.65-1.29c.09-.17.21-.34.32-.52a3.28,3.28,0,0,0,.76-2.31,45.92,45.92,0,0,0-1.55-6.77c-1.28-4.07-2.72-8.33-4.65-13.83-.62-1.76-.27-2.48.53-3.12a5.85,5.85,0,0,1,3.59-1.54A4,4,0,0,1,31,46.6a3,3,0,0,1,.73,1.19c1.24,3.26,2.43,6.54,3.63,9.82.71,1.94,1.41,3.89,2.13,5.83l.22.6a57.47,57.47,0,0,0,2.17,5.34,3.93,3.93,0,0,0,3,2.19H43l.2,0a2.35,2.35,0,0,0,1.67-1.09,3.67,3.67,0,0,0,0-3C44,64.73,43.13,62,42.23,59.18c-.76-2.36-1.53-4.73-2.28-7.09-.48-1.52-.91-3-1.37-4.63,0-.19-.1-.38-.16-.56,3.33.35,6.77,2.76,7.66,5.48,1.76,5.41,3.49,11.2,5.63,18.77,1.13,4,2.19,8.08,3.21,12,.46,1.78.92,3.57,1.39,5.35.23.88.71,2.7,2.41,2.7a4,4,0,0,0,2.38-1.12l5.7-4.5,1.53-1.21c1.52,2.33,2.85,4.6,3.1,7.24a4.07,4.07,0,0,1-.77,2.13c-4.85,8.42-9.21,15.89-13.33,22.84a4.36,4.36,0,0,0-.26,4.44c1,2.12,1.93,4.26,2.91,6.52l.33.77Z"/><path class="cls-2" d="M29.76,47.72a2.22,2.22,0,0,1,.51.06,3,3,0,0,1,.24.48c1.24,3.27,2.45,6.61,3.63,9.84.71,1.94,1.41,3.87,2.13,5.8l.22.6c.66,1.8,1.34,3.66,2.21,5.46.59,1.23,2.27,3,4.16,3a3.66,3.66,0,0,0,.57,0A3.75,3.75,0,0,0,46,71.14a4.94,4.94,0,0,0,.18-4c-.88-2.77-1.79-5.58-2.66-8.29-.77-2.38-1.54-4.75-2.3-7.13-.3-1-.59-1.93-.88-2.93,2.07.81,3.93,2.4,4.46,4,1.76,5.39,3.49,11.16,5.63,18.72,1.12,4,2.17,8,3.19,12q.69,2.68,1.39,5.37c.25.92,1,3.7,3.71,3.7a5.29,5.29,0,0,0,3.21-1.41l5.81-4.59.26-.2a12.54,12.54,0,0,1,2.1,5.35,3.9,3.9,0,0,1-.6,1.38c-4.84,8.41-9.2,15.88-13.32,22.83a5.64,5.64,0,0,0-.32,5.69c.81,1.7,1.56,3.42,2.34,5.21-2.58-.2-5.1-.4-7.62-.62s-5.06-.44-7.59-.66c-4.23-.37-8.59-.76-12.94-1.11a24.29,24.29,0,0,0-2.85-4.68c-1.29-1.63-2.66-3.19-4-4.7l-2.1-2.41a35.66,35.66,0,0,1-7.26-13.09c-3.72-12.46-7.49-24.72-11-36.2-.31-1-.09-1.13.45-1.45,1-.59,2-1.13,2.93-1.59,1.89,5.44,3.86,10.83,5.56,15.43a17.63,17.63,0,0,0,1.91,3.81,4.74,4.74,0,0,0,3.64,2,3.58,3.58,0,0,0,.92-.13A4.33,4.33,0,0,0,20.94,77a23.46,23.46,0,0,0-1-4.73c-1.84-5.91-3.5-11.08-5.08-15.78v0c1.16-.8,2.38-1.62,3.61-2.38,1.53,5,3,9.74,4.51,14.35a34.9,34.9,0,0,0,2.27,5.45,4.92,4.92,0,0,0,2.48,2,4.34,4.34,0,0,1,.42.2l2.47,1.49L32,75.08a4.27,4.27,0,0,1,.24-.38,4.59,4.59,0,0,0,1-3.26,48,48,0,0,0-1.6-7c-1.27-4-2.75-8.45-4.66-13.86-.42-1.21-.22-1.37.11-1.64a4.64,4.64,0,0,1,2.75-1.25m0-2.67a7.19,7.19,0,0,0-4.42,1.83c-1.58,1.27-1.59,2.82-1,4.62C26,56.07,27.55,60.66,29,65.28a44.81,44.81,0,0,1,1.51,6.58c.1.61-.61,1.34-.95,2-.66-.4-1.61-.64-1.92-1.22a31.58,31.58,0,0,1-2.08-5Q23.08,60,20.77,52.36c-.31-1-.8-1.52-1.48-1.52a2.29,2.29,0,0,0-1.09.35c-1.75,1-3.44,2.16-5.11,3.3-1,.72-1.13,1.66-.71,2.89,1.75,5.22,3.42,10.46,5.06,15.72a21.56,21.56,0,0,1,.84,4.2,1.83,1.83,0,0,1-.81,1.53l-.17,0a2.1,2.1,0,0,1-1.42-.78,14.8,14.8,0,0,1-1.62-3.23c-2-5.43-4-10.86-5.87-16.33-.3-.88-.7-1.38-1.33-1.38a2,2,0,0,0-.83.22,47.5,47.5,0,0,0-4.36,2.28A3.53,3.53,0,0,0,.25,64.16c3.72,12,7.43,24.09,11,36.17a38.21,38.21,0,0,0,7.79,14.06c2,2.35,4.11,4.62,6,7a22,22,0,0,1,2.58,4.3c.4.84.73,1.27,1.74,1.35,7,.56,14,1.21,20.92,1.81,3.94.34,7.89.63,12.07,1-1.43-3.26-2.71-6.35-4.14-9.37a3,3,0,0,1,.2-3.19q6.75-11.39,13.34-22.85a5.51,5.51,0,0,0,.94-2.92c-.32-3.44-2.22-6.21-4.12-9.07l-8.37,6.61a3,3,0,0,1-1.55.83c-.52,0-.81-.54-1.12-1.7-1.53-5.8-3-11.63-4.6-17.41C51.22,64.49,49.37,58.2,47.35,52c-1.16-3.57-5.72-6.46-9.76-6.46a7.3,7.3,0,0,0-.94.06c.7,2.4,1.31,4.68,2,6.92,1.64,5.15,3.34,10.27,5,15.42.27.87.55,2.09-.69,2.32h-.08c-.54,0-1.45-.82-1.75-1.44-.91-1.88-1.61-3.86-2.33-5.82C36.85,57.76,35,52.52,33,47.32a3.47,3.47,0,0,0-1.55-2,5.45,5.45,0,0,0-1.7-.28Z"/><path class="cls-1" d="M110.64,206.76a8.16,8.16,0,0,1-3.31-1.43l-.26-.15a7.67,7.67,0,0,1-1.74-1.28,9.58,9.58,0,0,1,1.24-1.74c3.18-3.82,6.4-7.77,9.85-12.07a16.86,16.86,0,0,0,2.22-3.46,3.54,3.54,0,0,0-.41-3.26,1.83,1.83,0,0,0-1.54-.65,3.82,3.82,0,0,0-2,.57,16.38,16.38,0,0,0-2.79,2.54l-.19.22c-3.71,4.14-7.53,8.42-11.21,12.72-.54.64-.82.64-.91.64a1.32,1.32,0,0,1-.5-.14c-1.8-.84-3.55-1.66-5.2-2.59a1.72,1.72,0,0,1-.38-.28s.11-.18.36-.46c3.17-3.46,6.36-7.07,9.17-10.25,1.31-1.49,2.58-3,3.65-4.36l.12-.14a6,6,0,0,0,1.27-2.15,5.59,5.59,0,0,0,.09-2c0-.21,0-.41,0-.62l0-1.41-1.41.1h-1.06a3.29,3.29,0,0,0-1.78.42,14.86,14.86,0,0,0-3.13,2.76q-3.57,4.06-7.09,8.17l-4,4.58a4.2,4.2,0,0,1-3.13,1.58,4.25,4.25,0,0,1-3.8-2.88c-.2-.46-.19-.81.38-1.52l3.83-4.76L92,177.1c1.72-2.14,3.5-4.36,5.26-6.63a6.14,6.14,0,0,0,1.15-2.24,2.82,2.82,0,0,0-.89-2.56,2.15,2.15,0,0,0-1.44-.48,2.45,2.45,0,0,0-1.36.37,10.54,10.54,0,0,0-2.11,1.85c-2.1,2.39-4.18,4.78-6.27,7.17q-2.52,2.91-5.06,5.8c-.69.79-1.42,1.57-2.17,2.38-1.45-3.24-1.19-7.27.79-9.48,5.16-5.77,10.57-11.52,15.79-17.08l2.17-2.32c1.41-1.5,2.9-3,4.33-4.44,1.19-1.19,2.37-2.38,3.53-3.59a3.72,3.72,0,0,0,1.09-2.7c-.14-1.48-2.28-1.92-2.53-2-2.51-.46-5-.87-7.64-1.31l-1.07-.18c1.29-3.1,2.57-6,4.93-8.17a3.5,3.5,0,0,1,2-.54c8.54-.17,17.5-.28,26.62-.34a5.26,5.26,0,0,0,4-1.64c1.89-1.9,3.87-3.79,5.78-5.61l1.46-1.4c.17.72.33,1.44.5,2.15.74,3.17,1.44,6.17,2.21,9.21q1.44,5.61,2.92,11.21,1.26,4.78,2.5,9.57a2.46,2.46,0,0,1,0,1.32c-1.25,3.83-2.6,7.71-3.9,11.45A31.06,31.06,0,0,1,138,177.54c-2.66,2.94-5.31,5.9-7.95,8.85-5.36,6-10.9,12.16-16.41,18.19C112.16,206.17,111.35,206.76,110.64,206.76Z"/><path class="cls-2" d="M139.62,124.59c.73,3.13,1.42,6.09,2.19,9.1.95,3.74,1.95,7.54,2.91,11.2q1.26,4.8,2.51,9.58a1.52,1.52,0,0,1,0,.58c-1.25,3.83-2.61,7.72-3.93,11.51A29.62,29.62,0,0,1,137,176.64q-4,4.41-7.93,8.84c-5.36,6-10.91,12.17-16.41,18.2-1.56,1.69-1.95,1.74-2,1.74a8.13,8.13,0,0,1-2.63-1.24l-.16-.09-.07,0-.67-.43.49-.61c3.19-3.83,6.41-7.79,9.86-12.08a18.49,18.49,0,0,0,2.4-3.74,4.84,4.84,0,0,0-.57-4.62,3.1,3.1,0,0,0-2.6-1.19,5.25,5.25,0,0,0-2.79.81,17.87,17.87,0,0,0-3,2.75l-.17.19c-3.71,4.15-7.55,8.45-11.24,12.77l0,.06c-1.33-.62-2.63-1.24-3.87-1.89,2.72-3,5.36-6,8.47-9.49,1.33-1.51,2.61-3.07,3.69-4.4l.12-.15a7.21,7.21,0,0,0,1.52-2.63,7,7,0,0,0,.14-2.48,4.89,4.89,0,0,1,0-.54l0-2.82-2.82.19h-1a4.65,4.65,0,0,0-2.5.63,16,16,0,0,0-3.41,3c-2.39,2.71-4.78,5.48-7.1,8.17l-4,4.59a2.85,2.85,0,0,1-2.12,1.11,3,3,0,0,1-2.54-2,1.4,1.4,0,0,1,.16-.23L88,184.29l5.13-6.37c1.73-2.16,3.52-4.39,5.25-6.63a7.29,7.29,0,0,0,1.4-2.76,4.2,4.2,0,0,0-1.3-3.87,3.49,3.49,0,0,0-2.33-.81,3.81,3.81,0,0,0-2.1.59,12.06,12.06,0,0,0-2.38,2.09l-6.29,7.2c-1.68,1.93-3.35,3.85-5,5.76l-.59.66a7.2,7.2,0,0,1,1.2-6c5.18-5.78,10.59-11.54,15.83-17.12l2.12-2.25c1.39-1.49,2.87-3,4.29-4.41,1.17-1.17,2.38-2.39,3.55-3.62a5,5,0,0,0,1.46-3.75c-.23-2.41-3.06-3-3.62-3.15-2.33-.42-4.63-.81-7-1.21a17.65,17.65,0,0,1,3.9-6.11,3.2,3.2,0,0,1,1.17-.23c8.57-.16,17.52-.27,26.6-.33a6.59,6.59,0,0,0,4.93-2c1.8-1.81,3.69-3.61,5.52-5.36m1.55-5.09c-.57.5-1,.83-1.35,1.19-2.55,2.45-5.12,4.87-7.61,7.37a4,4,0,0,1-3.06,1.26q-13.32.08-26.64.33a4.7,4.7,0,0,0-2.88.9c-3,2.74-4.34,6.47-5.91,10.19,3.62.61,7,1.15,10.35,1.77.54.09,1.41.46,1.44.77a2.39,2.39,0,0,1-.73,1.64c-2.59,2.71-5.3,5.31-7.86,8.05-6,6.43-12.11,12.85-18,19.42-2.74,3.06-2.69,8.78-.05,12.62,1.22-1.33,2.36-2.52,3.44-3.75,3.78-4.32,7.53-8.65,11.32-13a9.25,9.25,0,0,1,1.85-1.63,1.19,1.19,0,0,1,.62-.15.89.89,0,0,1,.56.15,1.51,1.51,0,0,1,.46,1.25,4.56,4.56,0,0,1-.9,1.73c-1.72,2.23-3.48,4.42-5.24,6.61l-8.92,11.09a2.59,2.59,0,0,0-.57,2.89,5.58,5.58,0,0,0,5,3.69,5.5,5.5,0,0,0,4.14-2c3.69-4.24,7.34-8.52,11.06-12.74a13.29,13.29,0,0,1,2.83-2.52,2,2,0,0,1,1.07-.21h1.15a8.61,8.61,0,0,1,0,2.27,5.33,5.33,0,0,1-1.14,1.8c-1.18,1.46-2.37,2.91-3.61,4.32-3,3.43-6.07,6.86-9.16,10.23-1.08,1.18-.88,2.11.35,2.8,1.72,1,3.51,1.81,5.29,2.64a2.56,2.56,0,0,0,1.07.27,2.59,2.59,0,0,0,1.93-1.11c3.73-4.36,7.55-8.64,11.37-12.92a15.27,15.27,0,0,1,2.56-2.33,2.56,2.56,0,0,1,1.26-.33.65.65,0,0,1,.47.12,2.2,2.2,0,0,1,.27,1.89,16,16,0,0,1-2.05,3.19q-4.87,6.06-9.83,12.05c-2.23,2.68-2.19,3.13.81,5l.28.17c1.77,1.05,3,1.62,4,1.62,1.25,0,2.32-.82,4-2.62,8.18-9,16.24-18,24.36-27a32.44,32.44,0,0,0,6.9-11c1.34-3.84,2.68-7.69,3.95-11.56a4,4,0,0,0,0-2.07C148,146.88,146.17,140,144.4,133c-1.12-4.41-2.12-8.86-3.23-13.53Z"/><path class="cls-1" d="M59.62,82.22C58.78,79,58,75.86,57.08,72.73q-1.86-6.42-3.79-12.82c-1-3.22-1.93-6.44-2.87-9.67a2.46,2.46,0,0,1,0-1.22c1.81-7.34,4.48-13,8.41-17.84C63,26.13,67.07,20.93,71,15.9c3.19-4.05,6.48-8.24,9.76-12.32C82.29,1.7,83,1.34,83.64,1.34a8.85,8.85,0,0,1,3.13,1.1,12.83,12.83,0,0,1,1.17.66,9.25,9.25,0,0,1,1.11.8,9.19,9.19,0,0,1-.79,1.22c-3.68,5.13-7,9.77-10.05,14.18a13,13,0,0,0-1.54,3.12,2.69,2.69,0,0,0,.9,2.87,3,3,0,0,0,1.58.42,2.52,2.52,0,0,0,1.38-.38A11.16,11.16,0,0,0,83,23c3.38-4.28,7.35-9.33,11.18-14.38.56-.73.78-.73.85-.73a1.13,1.13,0,0,1,.35.08l.75.31c1.68.67,3.42,1.36,5,2.15a.56.56,0,0,0,.13.07,1.82,1.82,0,0,1-.22.33c-3.5,4.4-6.36,8.05-9,11.49A54.76,54.76,0,0,0,88.2,28.1a3.94,3.94,0,0,0,.18,4,2.44,2.44,0,0,0,1.9.92,3.64,3.64,0,0,0,2.64-1.44c2.08-2.31,3.8-4.28,5.42-6.37s3.1-4.09,4.59-6.11q1.45-2,2.95-4c1-1.33,1.64-1.5,2.14-1.5a4.11,4.11,0,0,1,1.87.6A9.23,9.23,0,0,1,112,15.91a1.41,1.41,0,0,1,.18,2.14q-4.47,6.27-8.88,12.58l-.4.56c-1.24,1.78-2.54,3.62-3.74,5.49L99,37c-.48.68-2,2.76.13,4.34a2.66,2.66,0,0,0,1.64.6,3.45,3.45,0,0,0,2.63-1.74l.22-.29c1.36-1.7,2.7-3.46,4-5.16l1.88-2.46c2.19-2.83,4.37-5.67,6.58-8.48.16-.19.32-.38.5-.57,1.59,3,1.55,7.25-.28,9.58-4.9,6.24-10,12.46-15,18.48l-.94,1.15c-1.69,2-3.47,4.08-5.19,6.05l-2.79,3.2c-.74.86-1.38,1.81-1.06,2.88s1.4,1.52,2.52,1.85l7.76,2.22,2,.55a18.28,18.28,0,0,1-4.46,6.16,7.18,7.18,0,0,1-3.55,1.16C89.27,77.1,81,77.8,72.81,78.25c-2.86.16-5.87.65-8.47,3.17a40.64,40.64,0,0,1-3.76,3.07,3.55,3.55,0,0,0-.31.23C60.05,83.88,59.84,83.05,59.62,82.22Z"/><path class="cls-2" d="M83.64,2.67a9.53,9.53,0,0,1,2.54,1,11.1,11.1,0,0,1,1,.58l0,0-.06.09c-3.69,5.13-7,9.78-10.07,14.2A14.06,14.06,0,0,0,75.41,22a4,4,0,0,0,1.45,4.45,4.33,4.33,0,0,0,2.29.63,3.79,3.79,0,0,0,2.14-.62A12.61,12.61,0,0,0,84,23.86c3.39-4.29,7.36-9.36,11.2-14.4l0-.05.37.14c1.23.5,2.42,1,3.58,1.49-3.15,4-5.77,7.32-8.19,10.5a55,55,0,0,0-4,5.9A5.28,5.28,0,0,0,87.36,33a3.81,3.81,0,0,0,2.92,1.39,4.88,4.88,0,0,0,3.63-1.89c2.1-2.33,3.84-4.31,5.49-6.43s3.11-4.12,4.6-6.14c1-1.33,2-2.65,2.94-4,.46-.6.87-1,1.08-1a3,3,0,0,1,1.24.45,8.3,8.3,0,0,1,1.84,1.42l.17.2c0,.05-.07.13-.14.23-3.2,4.49-6.29,8.88-8.88,12.58l-.39.55C100.6,32.2,99.3,34.06,98.08,36l-.2.29c-2.34,3.32-.75,5.29.41,6.17a4,4,0,0,0,2.45.88A4.64,4.64,0,0,0,104.43,41l.2-.25c1.37-1.71,2.71-3.46,4-5.16l1.9-2.48c1.81-2.35,3.68-4.78,5.57-7.19.5,2.21.23,4.66-.89,6.08-4.9,6.24-10,12.49-15,18.52l-.88,1.08c-1.68,2-3.45,4.06-5.17,6-.93,1.07-1.87,2.14-2.79,3.21-.57.66-1.9,2.21-1.33,4.13s2.57,2.5,3.43,2.75L101.33,70l.24.07a14,14,0,0,1-3.33,4.27,5.77,5.77,0,0,1-2.84.87c-6.24.57-14.46,1.27-22.66,1.72-3,.16-6.41.71-9.33,3.54a25.82,25.82,0,0,1-2.35,2c-.05-.18-.09-.36-.14-.55-.85-3.28-1.65-6.38-2.56-9.53-1.23-4.28-2.52-8.61-3.78-12.8-1-3.23-1.93-6.46-2.87-9.67a1.65,1.65,0,0,1,.06-.55c1.76-7.15,4.35-12.65,8.14-17.31C64,27,68.11,21.77,72.06,16.75c3.19-4.06,6.48-8.25,9.77-12.33,1.3-1.62,1.71-1.75,1.81-1.75m0-2.67c-1.34,0-2.37.83-3.9,2.74-7.36,9.16-14.49,18.49-21.9,27.6A45.66,45.66,0,0,0,49.17,48.7a3.75,3.75,0,0,0,0,1.91c2.19,7.5,4.49,15,6.65,22.49,1.31,4.53,2.43,9.12,3.7,13.9,2-1.6,4-3,5.78-4.62,2.18-2.11,4.71-2.63,7.62-2.79,7.59-.42,15.18-1,22.75-1.72a8.23,8.23,0,0,0,4.26-1.45c2.57-2,4-5,5.57-8-3.89-1.11-7.59-2.16-11.28-3.23-1.92-.55-2.09-1.08-.81-2.57,2.66-3.09,5.39-6.12,8-9.27,5.37-6.51,10.74-13,15.95-19.65,2.53-3.23,2.15-9.15-.57-12.55-.64.68-1.24,1.24-1.75,1.88q-3.31,4.23-6.59,8.5c-2,2.53-3.86,5.1-5.87,7.59-.48.6-1,1.53-1.8,1.53a1.36,1.36,0,0,1-.83-.32c-1.23-.94-.13-2,.42-2.9,1.31-2,2.71-4,4.11-6q4.41-6.3,8.87-12.57A2.73,2.73,0,0,0,113,15a10.74,10.74,0,0,0-2.47-1.89,5.36,5.36,0,0,0-2.5-.76c-1.19,0-2.18.66-3.21,2-2.52,3.35-5,6.77-7.53,10.08-1.68,2.17-3.51,4.24-5.35,6.28a2.58,2.58,0,0,1-1.65,1,1.14,1.14,0,0,1-.89-.46,2.7,2.7,0,0,1,0-2.48,51.63,51.63,0,0,1,3.8-5.61c2.94-3.86,5.94-7.67,9-11.47.83-1,.71-1.9-.38-2.43-1.91-.93-3.9-1.7-5.88-2.5A2.36,2.36,0,0,0,95,6.58,2.5,2.5,0,0,0,93.1,7.84c-3.67,4.83-7.41,9.6-11.17,14.36a9.81,9.81,0,0,1-2.15,2,1.13,1.13,0,0,1-.63.15,1.64,1.64,0,0,1-.86-.21,1.4,1.4,0,0,1-.36-1.29,11.37,11.37,0,0,1,1.37-2.8q5-7.12,10-14.17C90.9,3.74,90.89,3.41,88.66,2a11.81,11.81,0,0,0-1.29-.73A9.2,9.2,0,0,0,83.64,0Z"/><path class="cls-1" d="M131.92,87a14.28,14.28,0,0,1-2.47-.2,4,4,0,0,1-1.54-1.17q-3.73-3.81-7.44-7.64c-3.61-3.72-7.34-7.56-11-11.31a7.85,7.85,0,0,0-3.51-1.89c-2.32-.67-4.64-1.26-7.1-1.88-.31-.08-.63-.15-.94-.24l5.51-6.61c5.12-6.13,10.41-12.47,15.55-18.76A18.61,18.61,0,0,0,121,33.9c.34-.65.66-1.28,1-1.86a2.07,2.07,0,0,1,.75-.61c5.82-3,12.3-3.53,17.87-3.67l4.39-.1c9.45-.23,19.23-.47,28.84-.61h.55c3.12,0,3.28.14,4.23,3.82l.08.31a2.79,2.79,0,0,1,.1.39,9.22,9.22,0,0,1,.21,2,9.56,9.56,0,0,1-2,.29c-5.78.43-11.57.9-17.47,1.38a5.88,5.88,0,0,0-2.47.61c-.19.11-1.84,1.08-1.84,2.53,0,1.28,1.46,2.24,2.24,2.48a10.08,10.08,0,0,0,2.77.35h.42c6.1-.18,12.07-.36,18.05-.63h.18c.8,0,.93.23,1.06.61.64,1.87,1.29,3.86,1.78,5.85a1.43,1.43,0,0,1,0,.23,1.48,1.48,0,0,1-.32,0c-4.65.12-9.64.28-15.23.5-1.53.06-3.55.17-5.56.44l-.19,0c-1.12.15-3.77.5-3.65,3.23s3.16,2.91,4.15,2.93l2.59,0c2.17,0,4.53,0,7.23-.14,1.94-.06,3.88-.17,5.81-.27,1.7-.09,3.4-.18,5.1-.25h.27c1.32,0,1.78.33,2.11,1.56a12.18,12.18,0,0,1,.31,4.09c0,.43-.2.94-1.2,1q-8.18.61-16.33,1.3-2.94.26-5.88.56l-1.18.12a2.61,2.61,0,0,0-1.58.55,9.17,9.17,0,0,0-1,1.14,3.57,3.57,0,0,1-.3.38L156,65.58l1.12.84a3,3,0,0,1,.33.3,2.85,2.85,0,0,0,1.9,1h1.35c2.63,0,5.27-.07,8-.15l6-.22,6.53-.23h.1l.37,0c-1.31,3.16-4.52,5.81-7.41,5.87-8.32.18-16.79.22-25,.25l-5.21,0c-1.46,0-3-.06-4.42-.11-1,0-2-.08-3-.1h-.17a3.09,3.09,0,0,0-2.78,1.2c-.7,1.22.11,2.63.38,3.1,1.31,2.27,2.63,4.54,4,6.88l.9,1.55A26.68,26.68,0,0,1,131.92,87Z"/><path class="cls-2" d="M174.4,28.38a5.78,5.78,0,0,1,2,.18,8.59,8.59,0,0,1,.91,2.63c0,.11.07.23.1.35a2.1,2.1,0,0,1,.06.24q.07.4.12.69l-.72.06c-5.74.42-11.32.87-17.49,1.38a7.3,7.3,0,0,0-3,.77c-.42.24-2.53,1.53-2.53,3.71,0,1.93,1.87,3.35,3.19,3.75a11,11,0,0,0,3.16.41h.46c6.13-.18,12.12-.36,18.07-.64h0c.45,1.32.9,2.7,1.28,4.09-4.26.11-8.83.27-13.91.46-1.57.07-3.63.17-5.69.45l-.18,0c-4.12.54-4.89,2.81-4.81,4.61.07,1.54.87,4.12,5.45,4.21l2.6,0c2.18,0,4.57-.05,7.3-.14,1.95-.07,3.92-.17,5.82-.27,1.67-.09,3.4-.19,5.09-.25h.22a2,2,0,0,1,.62.07,1.53,1.53,0,0,1,.2.51,10.59,10.59,0,0,1,.28,3.42c-4.9.38-10.08.79-16.32,1.31-2,.16-3.94.36-5.86.56l-1.09.11h-.11a3.87,3.87,0,0,0-2.36.89,10.07,10.07,0,0,0-1.17,1.31l-.27.35-1.78,2.16,2.24,1.68a2.09,2.09,0,0,1,.22.2,4.12,4.12,0,0,0,2.81,1.36h1.37c2.63,0,5.28-.07,8-.16l6-.21,4.63-.17c-1.35,1.79-3.34,3.11-5.12,3.15-8.31.19-16.78.22-25,.26l-4.92,0h-.27c-1.45,0-2.94-.06-4.38-.11l-3.05-.09h-.2c-1.89,0-3.22.63-3.93,1.87s-.6,2.74.37,4.43c1.32,2.29,2.65,4.57,4,6.92h0a21.59,21.59,0,0,1-5,.7,13.67,13.67,0,0,1-2.15-.17,4.91,4.91,0,0,1-.91-.8q-3.74-3.82-7.45-7.66c-3.61-3.72-7.33-7.56-11-11.3a9.35,9.35,0,0,0-4.1-2.24c-2-.57-4-1.08-6-1.6l4.09-4.9c5.14-6.16,10.46-12.53,15.63-18.85a19.53,19.53,0,0,0,2.21-3.62c.32-.62.62-1.21.94-1.74a.93.93,0,0,1,.24-.17c5.58-2.86,11.87-3.38,17.29-3.51L145.1,29c9.43-.23,19.18-.46,28.77-.61h.53m0-2.68h-.57c-11.08.17-22.17.45-33.25.72-6.37.15-12.65.83-18.44,3.81a3.26,3.26,0,0,0-1.28,1.1c-1,1.68-1.73,3.6-3,5.11-7,8.49-14,16.89-21,25.32l-1.38,1.67c3.57.92,6.83,1.7,10.05,2.62a6.94,6.94,0,0,1,2.93,1.54c6.2,6.28,12.31,12.65,18.48,19a5,5,0,0,0,2.28,1.55,16.36,16.36,0,0,0,2.69.22A32.4,32.4,0,0,0,141,86.62c-2-3.44-3.89-6.67-5.76-9.91-.91-1.59-.54-2.29,1.24-2.29h.14c2.5,0,5,.2,7.49.2h.29c10-.05,20-.05,29.93-.27,4.06-.09,8.22-4.08,9.13-8.35-.72-.07-1.42-.21-2.12-.21h-.14c-4.19.12-8.38.31-12.56.44-2.64.08-5.28.16-7.92.16h-1.34c-.49,0-1-.67-1.45-1A10.91,10.91,0,0,1,159.08,64a1.75,1.75,0,0,1,.94-.23c2.31-.23,4.61-.47,6.91-.66q8.16-.69,16.32-1.31a2.37,2.37,0,0,0,2.43-2.26,13.57,13.57,0,0,0-.35-4.54,3,3,0,0,0-3.4-2.54h-.32c-3.64.13-7.27.39-10.9.52-2.4.08-4.81.13-7.21.13-.85,0-1.7,0-2.55,0-1.15,0-2.76-.07-2.83-1.65s1.52-1.71,2.68-1.87c1.8-.24,3.62-.35,5.43-.42,5.07-.2,10.14-.38,15.21-.5,1.38,0,1.82-.83,1.56-1.92-.49-2-1.14-4-1.81-6a2.16,2.16,0,0,0-2.33-1.52h-.25c-6,.28-12,.46-18,.63h-.38a8.3,8.3,0,0,1-2.39-.31c-.53-.15-1.28-.77-1.28-1.19s.65-1.08,1.16-1.36a4.69,4.69,0,0,1,1.91-.44c5.83-.48,11.65-1,17.47-1.38,3.35-.25,3.63-.55,3-3.88,0-.27-.14-.53-.21-.8-1-4.08-1.64-4.82-5.52-4.82Z"/><path class="cls-1" d="M62.33,178.37q-.55,0-1.11,0c-5.43-.31-10.86-.59-16.29-.87-7.54-.4-15.35-.8-23-1.25-.26,0-.53,0-.8,0-1.33,0-1.91-.09-2.26-.74a9.38,9.38,0,0,1-1.15-6.1,1.1,1.1,0,0,1,.37-.13h.49c3.28,0,6.57,0,9.85.06,2.5,0,5,.05,7.51.06h0a11.48,11.48,0,0,0,3.5-.44,3.42,3.42,0,0,0,1.63-1.29,4.29,4.29,0,0,1,.33-.38l1-1-1-.95a3.63,3.63,0,0,1-.3-.35,2.93,2.93,0,0,0-1.77-1.25c-2.59-.36-5.67-.76-8.81-.95-2.16-.12-4.34-.19-6.46-.25-1.9-.06-3.86-.12-5.79-.22a1.79,1.79,0,0,1-.66-.25A56.14,56.14,0,0,1,16,155.57s0-.08,0-.11l.27,0h.13c6.35.35,11.51.6,16.22.79.63,0,1.26,0,1.89,0a26.45,26.45,0,0,0,3.62-.22,3.93,3.93,0,0,0,2.08-1.24,6.26,6.26,0,0,1,.49-.44l1.19-.92-1-1.07c-.14-.15-.28-.33-.42-.51a3.59,3.59,0,0,0-2-1.55,36.91,36.91,0,0,0-6.28-.79c-3.48-.15-7-.24-10.43-.33l-4.15-.1c-1.79,0-2.57-.17-3-1.18-.91-2-.88-3.75.08-5.21a2.24,2.24,0,0,1,1.29-.46q3.12,0,6.24,0H32.24c2.07,0,4.15,0,6.22,0a6.44,6.44,0,0,0,2.45-.46,2.47,2.47,0,0,0-.19-4.66,12.92,12.92,0,0,0-3.09-.48c-2.7-.12-5.39-.23-8.09-.33q-4.3-.16-8.61-.36c-1.06,0-2.13-.15-3.26-.26,1.44-2.8,4.72-5.27,7.35-5.27h.14c4.21.15,8.51.51,12.66.87l2,.16q7.41.63,14.82,1.29l8.9.79.38,0a2.53,2.53,0,0,0,2.23-1.06,2.82,2.82,0,0,0,0-2.8c-.87-2-1.74-3.95-2.62-5.93l-1.44-3.25a28.87,28.87,0,0,1,5.41-.6,15.93,15.93,0,0,1,3.07.28,5,5,0,0,1,2.39,1.72c5.34,6.35,10.78,13,16.18,19.66A6.68,6.68,0,0,0,94,144.31c1.81.18,3.62.51,5.54.87l.21,0L93,152.35q-7.82,8.25-15.62,16.5a13.22,13.22,0,0,0-3.74,7.08.58.58,0,0,1-.15.13A35.06,35.06,0,0,1,62.33,178.37Z"/><path class="cls-2" d="M67.48,121.19a13.86,13.86,0,0,1,2.8.27,3.76,3.76,0,0,1,1.64,1.26c5.31,6.32,10.74,12.93,16.16,19.64a8,8,0,0,0,5.74,3.28c1.05.11,2.12.27,3.21.45l-4.73,5q-8,8.43-16,16.86A14.8,14.8,0,0,0,72.41,175a32.45,32.45,0,0,1-10.08,2c-.34,0-.69,0-1,0-5.44-.3-10.88-.58-16.32-.87-7.54-.39-15.33-.8-23-1.25l-.86,0a7.6,7.6,0,0,1-1.13-.07,8.33,8.33,0,0,1-1.07-4.22c3.17,0,6.38,0,9.5.06l7.48.05H36a12.59,12.59,0,0,0,3.81-.49,4.69,4.69,0,0,0,2.28-1.73l.24-.28,1.92-1.91-1.94-1.89a2.31,2.31,0,0,1-.2-.24,4.13,4.13,0,0,0-2.63-1.73c-2.62-.37-5.72-.77-8.91-1-2.18-.13-4.37-.2-6.49-.26-1.78-.05-3.62-.11-5.42-.2-.39-1.31-.73-2.68-1-4.14,5.77.31,10.54.54,14.92.72.72,0,1.35,0,2,0a27.67,27.67,0,0,0,3.81-.24,5.09,5.09,0,0,0,2.82-1.6c.14-.13.29-.27.38-.34l2.37-1.83-2.08-2.15-.32-.4a4.83,4.83,0,0,0-2.73-2,38.6,38.6,0,0,0-6.51-.83c-3.5-.15-7-.24-10.46-.32l-4.14-.11c-1.68,0-1.74-.17-1.83-.38-.84-1.9-.55-3-.17-3.71a1.36,1.36,0,0,1,.34-.08c1.82,0,3.79-.05,6.2-.05h10.1c1.87,0,4,0,6.21,0a7.5,7.5,0,0,0,3-.57,3.8,3.8,0,0,0-.34-7.16,14.07,14.07,0,0,0-3.41-.54l-8.15-.33c-2.85-.11-5.7-.22-8.55-.35-.31,0-.61,0-.92-.06,1.4-1.59,3.38-2.8,4.95-2.8h.09c4.18.14,8.45.51,12.57.86l2,.16c4.94.42,10,.86,14.83,1.3l8.88.78a4.35,4.35,0,0,0,.5,0,3.78,3.78,0,0,0,3.34-1.66,4.1,4.1,0,0,0,.13-4.06q-1.29-3-2.61-5.91c-.25-.57-.5-1.14-.76-1.71a22.78,22.78,0,0,1,3.5-.3m0-2.67a35.37,35.37,0,0,0-7.27,1c.26.63.46,1.14.68,1.63,1.33,3,2.69,6,4,9.07.54,1.25.14,2-1,2h-.27c-7.9-.69-15.81-1.42-23.72-2.08-4.89-.41-9.78-.86-14.68-1H25c-3.72,0-8.24,3.87-9.21,7.77,1.78.16,3.42.37,5.06.44,5.56.25,11.13.44,16.7.68a11.12,11.12,0,0,1,2.76.44,1.4,1.4,0,0,1,.81,1.06,1.46,1.46,0,0,1-.77,1.08,5,5,0,0,1-1.93.35c-2.06,0-4.11,0-6.17,0H30.82l-8.65,0c-2.08,0-4.16,0-6.24,0A3.25,3.25,0,0,0,13.54,142c-1.34,2.05-1.15,4.3-.19,6.49.82,1.85,2.51,1.93,4.2,2,4.86.14,9.71.22,14.56.43a36.27,36.27,0,0,1,6.06.77c.65.15,1.14,1.1,1.7,1.68-.64.49-1.24,1.32-1.94,1.41a24.64,24.64,0,0,1-3.44.22c-.61,0-1.23,0-1.84,0q-8.1-.33-16.2-.79h-.2c-1.17,0-1.78.59-1.56,1.72a56.72,56.72,0,0,0,1.68,6.83c.15.49,1.16,1,1.8,1,4.08.22,8.16.24,12.24.48,2.91.17,5.81.53,8.7.94.49.07.89.8,1.33,1.23-.47.47-.86,1.17-1.41,1.35a10.58,10.58,0,0,1-3,.37h-.08c-5.79,0-11.58-.12-17.37-.12h-.5c-.56,0-1.53.48-1.6.87a10.69,10.69,0,0,0,1.22,7.34c.92,1.68,2.73,1.37,4.16,1.45,13.11.77,26.22,1.4,39.32,2.12l1.18,0a35.87,35.87,0,0,0,11.57-2.39,1.67,1.67,0,0,0,1-1.05,11.75,11.75,0,0,1,3.4-6.49q11.36-12,22.76-24c.39-.41.77-.84,1.29-1.4-2.95-.5-5.59-1.09-8.27-1.35a5.34,5.34,0,0,1-3.92-2.3Q82.17,130.76,74,121a6.23,6.23,0,0,0-3.16-2.17,17.06,17.06,0,0,0-3.33-.31Z"/></svg>