<svg id="BACKGROUND_1" data-name="BACKGROUND 1" xmlns="http://www.w3.org/2000/svg" viewBox="0 0 200 163.92"><defs><style>.cls-1{fill:#fff;}.cls-2{fill:#1b4d82;}</style></defs><path class="cls-1" d="M100,123.88a1.88,1.88,0,0,1-1.9-1.32c-5-12.39-13.21-22.4-20.57-30.56C73.18,87.16,68.24,81.69,64,75.86a45.07,45.07,0,0,1-8.4-33.79C58.11,23.18,72.08,7.74,90.32,3.67A44.75,44.75,0,0,1,144,38.2c.45,2.18.69,4.47.92,6.7.07.61.13,1.23.2,1.84l-.18,0L145,48c.12,11.64-3.9,22.42-11.94,32-3,3.54-6.08,7-9.09,10.44-2.37,2.67-4.81,5.42-7.17,8.18A86.11,86.11,0,0,0,102,122.3c-.57,1.39-1.37,1.57-2,1.58Zm0-102.11a25.64,25.64,0,1,0,25.74,25.67A25.8,25.8,0,0,0,100,21.77Z"/><path class="cls-2" d="M100.21,3.85a43.7,43.7,0,0,1,42.52,34.61,66,66,0,0,1,.91,6.56c0,.18,0,.35.05.52h-.05l0,2.44c.12,11.33-3.79,21.83-11.64,31.2-2.94,3.52-6.05,7-9.06,10.41-2.37,2.67-4.82,5.43-7.19,8.19a87.51,87.51,0,0,0-15,24c-.31.78-.56.78-.82.78s-.52,0-.71-.51c-5.1-12.58-13.38-22.7-20.8-30.94A208.56,208.56,0,0,1,65,75.1a43.79,43.79,0,0,1-8.17-32.86A43.71,43.71,0,0,1,100.21,3.85h0M100,74.33h0a27,27,0,0,0,27-26.88,27.08,27.08,0,0,0-27-27,26.93,26.93,0,1,0,0,53.85m.2-73A46.26,46.26,0,0,0,54.29,41.9c-1.72,12.71,1.07,24.41,8.64,34.72A210.9,210.9,0,0,0,76.58,92.86C84.79,102,92.25,111.55,96.91,123a3.16,3.16,0,0,0,3.09,2.12h0a3.34,3.34,0,0,0,3.19-2.38,85.57,85.57,0,0,1,14.52-23.33c5.37-6.26,11-12.3,16.27-18.62,7.94-9.48,12.37-20.34,12.24-32.87l.31,0c-.42-3.34-.61-6.73-1.3-10a46.14,46.14,0,0,0-45-36.65ZM100,71.77h0a24.36,24.36,0,1,1,0-48.72h0a24.36,24.36,0,1,1,0,48.72Z"/><path class="cls-1" d="M178.92,162.64q-9.6,0-19.19,0a3.09,3.09,0,0,1-1.48-.37q-22-12.67-44.08-25.4l-4.06-2.34A103.57,103.57,0,0,1,119.33,120a2.52,2.52,0,0,1,.59-.18q23.58-4.2,47.19-8.35l2.22-.39,2.28-.39c1.52-.26,3-.52,4.53-.81l14,30.78,8.06,17.74a7.5,7.5,0,0,1,.45,1.31,2.14,2.14,0,0,1-1.62,2.77,8.27,8.27,0,0,1-1.92.2Z"/><path class="cls-2" d="M175.39,111.28q6.9,15.21,13.81,30.41L197,158.88a6,6,0,0,1,.37,1.08.87.87,0,0,1-.69,1.22,6.59,6.59,0,0,1-1.6.17H178.9l-19.17,0a2,2,0,0,1-.84-.19c-14.75-8.47-29.72-17.12-44.21-25.48L111.82,134a103.47,103.47,0,0,1,8.29-13h0q23.56-4.19,47.14-8.33l2.27-.41,2.26-.38,3.58-.63m1-2.77a1.73,1.73,0,0,0-.37,0c-2.29.45-4.59.81-6.88,1.22q-24.72,4.35-49.42,8.74a2.32,2.32,0,0,0-1.39.67A106.12,106.12,0,0,0,108.44,135c.4.26.7.48,1,.66q24.08,13.89,48.16,27.75a4.45,4.45,0,0,0,2.12.54q9.59,0,19.17,0h16.2a9.21,9.21,0,0,0,2.22-.24,3.43,3.43,0,0,0,2.56-4.32,9.23,9.23,0,0,0-.53-1.53q-11-24.27-22-48.55c-.23-.51-.47-.76-.94-.76Z"/><path class="cls-1" d="M5.19,162.64a9.33,9.33,0,0,1-1.53-.09,2.92,2.92,0,0,1-2.17-1.24A2.66,2.66,0,0,1,1.62,159c2.84-6.46,5.85-13,8.76-19.3l.27-.6a.77.77,0,0,1,.24-.12q19.71-3.51,39.43-7L56.48,131l3.2-.55c2.82-.49,5.75-1,8.61-1.55a2.87,2.87,0,0,1,.62-.07,2.79,2.79,0,0,1,1.44.44q11.18,6.5,22.38,12.94l35.49,20.47H5.19Z"/><path class="cls-2" d="M68.91,130.08a1.43,1.43,0,0,1,.79.26c7.49,4.35,15.11,8.75,22.49,13l3.46,2,19,11,8.77,5.06H5.19a7.5,7.5,0,0,1-1.31-.07c-.77-.13-1.16-.39-1.26-.58a1.57,1.57,0,0,1,.17-1.15c2.83-6.43,5.83-12.93,8.73-19.22l.06-.14c13-2.32,26.29-4.65,39.12-6.91l6-1.05,3.19-.56c2.83-.49,5.76-1,8.65-1.55a1.73,1.73,0,0,1,.37,0m0-2.57a4.41,4.41,0,0,0-.86.09c-3.92.76-7.86,1.41-11.8,2.1q-22.78,4-45.59,8.05a1.67,1.67,0,0,0-1.13.76c-3.07,6.65-6.14,13.3-9.09,20-1.19,2.71.1,4.8,3,5.3a11.21,11.21,0,0,0,1.74.1H132.32l.06-.32c-.32-.2-.62-.4-.94-.58l-34.5-19.9q-13-7.49-25.95-15a3.94,3.94,0,0,0-2.08-.61Z"/><polygon class="cls-1" points="26.58 104.01 52.99 119.24 16.75 125.64 26.58 104.01"/><path class="cls-2" d="M27.16,105.83l18.41,10.62,3.72,2.14-10.37,1.83-20,3.53,8.24-18.12M26,102.19,14.57,127.32,56.28,120l0-.29L26,102.19Z"/><path class="cls-1" d="M76.25,115,41.68,95h7.1c3.79,0,7.57,0,11.36,0a1.47,1.47,0,0,1,.71.2c5.64,6.2,11.35,12.55,16.87,18.7l.73.82c-.66.12-1.31.24-2,.34Z"/><path class="cls-2" d="M48.75,96.3c3.36,0,7.34,0,11.36,0,4.93,5.42,9.9,11,14.75,16.35L46.47,96.3h2.28m0-2.57H37.56l-.08.28c.19.13.38.28.59.4L75.6,116.07a2,2,0,0,0,.83.33h.08c1.37-.2,2.74-.48,4.25-.76a12.32,12.32,0,0,0-.74-1q-9.1-10.12-18.23-20.22a2.42,2.42,0,0,0-1.64-.6q-5.7,0-11.4,0Z"/><path class="cls-1" d="M132,104.83c2.87-3.1,5.84-6.31,8.8-9.42a1.36,1.36,0,0,1,.77-.36q6.39,0,12.8,0c3.06,0,6.11,0,9.17,0a9.06,9.06,0,0,1,7.1,3.47l-39.19,6.92Z"/><path class="cls-2" d="M154.39,96.29q4.59,0,9.18,0a7.39,7.39,0,0,1,4.34,1.37l-27,4.75-5.93,1c2.21-2.38,4.45-4.79,6.69-7.15h0c4.33,0,8.59,0,12.67,0h0m0-2.57q-6.4,0-12.8,0a2.56,2.56,0,0,0-1.69.75c-3.62,3.81-7.17,7.67-10.74,11.52-.3.32-.58.67-1.11,1.29l44.58-7.87a2.49,2.49,0,0,0-.07-.48,5.75,5.75,0,0,0-.53-.85,10.54,10.54,0,0,0-8.45-4.38c-3.06,0-6.13,0-9.19,0Z"/></svg>