<svg id="BACKGROUND_1" data-name="BACKGROUND 1" xmlns="http://www.w3.org/2000/svg" viewBox="0 0 200 203.16"><defs><style>.cls-1{fill:#fff;}.cls-2{fill:#1b4d82;}</style></defs><path class="cls-1" d="M191,146.32c.47-1.17.77-2,1.12-2.74a67.75,67.75,0,0,0,5-41.18c-4.09-21.3-15.7-37.47-34.62-48.14-3-1.67-4.33-3.26-4.45-6.86-.25-7.46-5.39-12.87-12.64-14.35-1.43-.29-2.6-.24-3,1.57-.73,3.23-2.88,5.08-5.82,5.13a5.94,5.94,0,0,1-6.18-5A2,2,0,0,0,127.77,33,15.69,15.69,0,0,0,115,45.16a2.3,2.3,0,0,1-2,2.18A68.4,68.4,0,0,0,87,59.45c-1.63,1.23-3.2,2.54-4.85,3.87-.37-.48-.65-.81-.9-1.16a17.81,17.81,0,0,0-11.46-7.27c-1.45-.3-2.73-.27-3.11,1.68a7.31,7.31,0,0,1-14.4.15c-.32-1.79-1.2-2.17-2.73-1.9a18.28,18.28,0,0,0-9.35,4.52c-5.41,5-6.21,11.36-5.63,18.14,0,.55,1.18,1.51,1.53,1.4a2.62,2.62,0,0,0,1.63-1.65c.23-1.86,0-3.76.12-5.64A14.31,14.31,0,0,1,49.11,58.52C51,63.12,54.21,66,59.45,66s8.61-2.83,10.5-7.49a14.21,14.21,0,0,1,8.57,5.6c1,1.28.91,2.07-.25,3.28a69.36,69.36,0,0,0-12.2,77.09c2.08,4.33,4.71,8.39,7.31,13a7.67,7.67,0,0,0-1.28.92q-14.4,14.37-28.74,28.78a9.35,9.35,0,0,0,.07,13.37,9.49,9.49,0,0,0,13.37-.22q9.27-9.24,18.51-18.52c3.79-3.83,7.55-7.7,11.4-11.63A70.83,70.83,0,0,0,121.47,184c-1.86,1.63-3.4,2.8-4.71,4.2a2.67,2.67,0,0,0-.47,2.3c.14.42,1.34.71,2,.66a25.21,25.21,0,0,0,3.48-.77L132.09,188c0,1.41,0,2.53,0,3.64,0,4.93,2.57,7.6,7.47,7.6h20.91q16.2,0,32.4,0c4.28,0,7.1-2.59,7.11-6.6q.06-20,0-39.93a6.31,6.31,0,0,0-6.45-6.43C192.8,146.3,192.08,146.32,191,146.32Zm-147-40.09h-.15c0-.69,0-1.38,0-2.07-.47-8.86-6.07-13.28-14.77-11.73a9.83,9.83,0,0,1-3.29,0,12.62,12.62,0,0,0-11.8,3.86c-3.91,4.09-4.07,9-3,14.26a4.63,4.63,0,0,1-.35,2.77c-1.34,2.7-1.31,6.57.71,8.26a11.43,11.43,0,0,1,3,4.38A17.79,17.79,0,0,0,16,128.49c3.44,5.09,8.93,7.42,14.46,5.94,5.22-1.4,8.18-5.27,10.29-10a5.48,5.48,0,0,1,1.27-2,6.85,6.85,0,0,0,2-8.4,6.24,6.24,0,0,1-.41-3.93C43.83,108.85,43.92,107.54,44.07,106.23ZM59.58,56.28a9.49,9.49,0,0,0,7.25-2.63A64.11,64.11,0,0,0,72,46.81,10.7,10.7,0,0,1,73.12,45a6.79,6.79,0,0,0,1.93-8.28,6,6,0,0,1-.44-2.3c0-2.68.42-5.39.14-8-.73-7-6-10.69-12.91-9.41a8.65,8.65,0,0,1-3.12.11c-6.76-1.3-12.94,2.47-14.3,9.21-.48,2.38.07,4.95.08,7.44a6.24,6.24,0,0,1-.34,2.6c-1.24,2.73-.87,6.12.85,8a15.64,15.64,0,0,1,2.42,3.41C50,52.66,53.57,56.18,59.58,56.28Zm77.48-21.51a21.54,21.54,0,0,0,3.65-1c3.14-1.38,5.09-4,6.51-7a6.59,6.59,0,0,1,1.28-2,6.25,6.25,0,0,0,1.81-6.64,17.82,17.82,0,0,1-.43-3.94c-.07-1.87.14-3.76-.08-5.61C149,2.33,144.31-1,138.15.25a7,7,0,0,1-2.57.06A10.84,10.84,0,0,0,128,1.64c-4.09,2.41-6,7.11-4.94,12.23a5.91,5.91,0,0,1-.25,3.92,6,6,0,0,0,.88,6.37,20.47,20.47,0,0,1,2.2,3.15C128.12,31.56,131.23,34.53,137.06,34.77ZM38.64,137.09c6.13,1.69,10.24,5.52,11.75,11.67.67,2.74.41,5.72.56,8.59.06,1.08.28,2,1.64,2.07s1.79-.92,1.81-2.1c0-1.5,0-3,0-4.52-.27-9.67-6.25-17-15.55-19.11-2.6-.58-3.06-.31-3.7,2.18a8.12,8.12,0,0,1-15.78.12c-.71-2.65-1.13-2.94-3.79-2.29C3.23,136.71-.89,146.71.16,158a1.63,1.63,0,0,0,2.65,1.16,4,4,0,0,0,.71-2.22c.22-2.74,0-5.56.57-8.22,1.25-5.83,6.65-10.82,11.86-11.41A11.91,11.91,0,0,0,38.64,137.09ZM85.8,176.57a9.48,9.48,0,0,0-1.68,1q-7.8,7.76-15.57,15.55c-.83.82-1.44,1.77-.49,2.77s2,.55,2.92-.37c2.64-2.68,5.32-5.32,8-8s5.09-5,7.54-7.62a3.14,3.14,0,0,0,.63-2.15C87.1,177.39,86.33,177,85.8,176.57Z"/><path class="cls-2" d="M191,146.32c1,0,1.76,0,2.48,0a6.31,6.31,0,0,1,6.45,6.43q.06,20,0,39.93c0,4-2.83,6.59-7.11,6.6q-16.2,0-32.4,0H139.55c-4.9,0-7.51-2.67-7.47-7.6,0-1.11,0-2.23,0-3.64l-10.29,2.35a25.21,25.21,0,0,1-3.48.77c-.69.05-1.89-.24-2-.66a2.67,2.67,0,0,1,.47-2.3c1.31-1.4,2.85-2.57,4.71-4.2a70.83,70.83,0,0,1-34.76-13.86c-3.85,3.93-7.61,7.8-11.4,11.63q-9.23,9.28-18.51,18.52a9.49,9.49,0,0,1-13.37.22,9.35,9.35,0,0,1-.07-13.37Q57.67,172.7,72.1,158.36a7.67,7.67,0,0,1,1.28-.92c-2.6-4.57-5.23-8.63-7.31-13a69.36,69.36,0,0,1,12.2-77.09c1.16-1.21,1.21-2,.25-3.28A14.21,14.21,0,0,0,70,58.51C68.06,63.17,64.76,66,59.45,66S51,63.12,49.11,58.52A14.31,14.31,0,0,0,37.89,71.59c-.07,1.88.11,3.78-.12,5.64a2.62,2.62,0,0,1-1.63,1.65c-.35.11-1.48-.85-1.53-1.4-.58-6.78.22-13.18,5.63-18.14a18.28,18.28,0,0,1,9.35-4.52c1.53-.27,2.41.11,2.73,1.9a7.31,7.31,0,0,0,14.4-.15c.38-2,1.66-2,3.11-1.68a17.81,17.81,0,0,1,11.46,7.27c.25.35.53.68.9,1.16C83.84,62,85.41,60.68,87,59.45A68.4,68.4,0,0,1,112.9,47.34a2.3,2.3,0,0,0,2-2.18A15.69,15.69,0,0,1,127.77,33a2,2,0,0,1,2.67,1.82,5.94,5.94,0,0,0,6.18,5c2.94,0,5.09-1.9,5.82-5.13.41-1.81,1.58-1.86,3-1.57,7.25,1.48,12.39,6.89,12.64,14.35.12,3.6,1.48,5.19,4.45,6.86,18.92,10.67,30.53,26.84,34.62,48.14a67.75,67.75,0,0,1-5,41.18C191.81,144.36,191.51,145.15,191,146.32Zm-40-4.93a43.57,43.57,0,0,1,2.51,3.69,2.18,2.18,0,0,0,2.25,1.25c4.14-.05,8.29-.1,12.43,0a3.25,3.25,0,0,0,3.06-1.65A51.28,51.28,0,0,0,180,106.62c-4.25-28-31.55-47.59-59.52-42.88-32.75,5.52-52.22,39.71-39.61,70.42,8,19.58,23.29,30.21,44.32,32.45a68.52,68.52,0,0,0,6.89,0v-3.09c0-3.52-.06-7,0-10.55.09-4.09,2.72-6.64,6.8-6.68,3.14,0,6.28,0,9.42,0,.51,0,1-.1,1.76-.17a9.87,9.87,0,0,0-5.49-4.45c-2.48-.88-5-1.6-7.49-2.48a24.31,24.31,0,0,0-16.36-.06c-2,.69-4,1.42-6.07,2-5.3,1.5-8.34,4.88-8.84,10.41-.11,1.17-.49,1.95-1.82,1.84s-1.55-1.08-1.5-2.17a13.94,13.94,0,0,1,3.25-8.44c.38-.46.74-.94,1.1-1.39-1.8-1.85-1.8-1.85-.4-5.27a11.92,11.92,0,0,1-7.56-5.43c-.75-1.1-1-2.22.31-3.1a4.94,4.94,0,0,0,2.18-4.88,37.94,37.94,0,0,0-.63-4.65c-1.56-7.11-3.35-14.17-2.43-21.56,1.5-12.07,7.43-21,19.53-24.88a35.32,35.32,0,0,1,21.83,0c9.71,3.08,16.05,9.45,18.7,19.38a39.15,39.15,0,0,1,.61,17.16c-.81,4.43-1.82,8.83-2.63,13.27-.4,2.18-.13,4.26,1.77,5.8,1.7,1.38,1.72,1.87.45,3.74a12.66,12.66,0,0,1-7.3,5.18C152.73,139.34,152.73,139.34,151,141.39ZM131.9,170c-17.87.53-32.94-5.51-44.61-18.91s-15.91-29.38-12.5-46.83a54.89,54.89,0,0,1,68.57-42.61c15.43,4.24,27.17,13.49,34.4,27.77,9.76,19.28,8.1,38.22-3.24,56.86,3.55,0,6.79-.15,10,.05,2,.13,2.91-.65,3.71-2.31a66.18,66.18,0,0,0-54.08-95,64.53,64.53,0,0,0-36.34,7.55,65.83,65.83,0,0,0-33.76,71.05c5.57,27.58,26.38,47.53,54.19,52.51,6.42,1.15,6.42,1.15,11.36-3.17a2.48,2.48,0,0,1,.43-.37C132.75,175,132.16,172.57,131.9,170Zm-7.21,15.75.2.32c.35,0,.7-.08,1-.15,2.14-.49,4.27-1,6.4-1.48,2.42-.54,3.12,0,3.13,2.48a45,45,0,0,0,.07,5.45,4.37,4.37,0,0,0,1.47,2.81,6.34,6.34,0,0,0,3.39.71q25.71.06,51.43,0a12.69,12.69,0,0,0,1.51,0,3.43,3.43,0,0,0,3.37-3.76q0-19.31,0-38.62c0-2.61-1.31-3.92-4-3.92q-26.65,0-53.31,0c-2.66,0-3.93,1.29-3.94,3.91,0,5.15-.42,10.34.11,15.43.57,5.55-1.12,9.5-5.79,12.47A45.22,45.22,0,0,0,124.69,185.78Zm.06-85.62a22.05,22.05,0,0,0,14.95-5c1.42-1.27,2.15-1.13,3.47.14a55.82,55.82,0,0,0,6.19,5.43c4.15,3,4.2,11.35,0,14a4.89,4.89,0,0,0-1.81,2.14c-2.4,5.78-5.74,10.73-11.53,13.61-1.56.77-.82,2.22-.82,3.35a2.09,2.09,0,0,0,1.21,1.5c3.48,1.26,7,2.4,10.51,3.54a4.32,4.32,0,0,0,1.34,0,41.39,41.39,0,0,1-1-4.48c-.17-1.42.69-2,2.09-1.82,2.73.41,4.43-1.12,6.1-3.07-2.56-2.58-2.71-5.69-2.36-8.88a42.22,42.22,0,0,1,.86-4.43c1.45-6.55,3.11-13.07,2.08-19.89-.79-5.22-2.28-10.18-5.9-14.2-5.41-6-12.4-8.51-20.3-8.77-17.21-.54-28.26,10.23-28.33,27.42,0,5.59,1.43,10.91,2.55,16.31.89,4.31,1.8,8.68-1.67,12.52,1.73,1.91,3.44,3.44,6.19,3,1.42-.22,2.2.55,2,2a31.58,31.58,0,0,1-.83,3.06,6,6,0,0,0-.09,1.2,3.43,3.43,0,0,0,1.19,0c3.46-1.11,6.92-2.23,10.33-3.47a2.39,2.39,0,0,0,1.37-1.59c.07-1.12.71-2.55-.86-3.32-5.87-2.91-9.19-8-11.56-13.8a3.88,3.88,0,0,0-1.42-1.81,7,7,0,0,1-3.16-4.49c-1-3.63.21-8.15,3.77-10.37,4.69-2.91,9.38-5.6,15-6a3.4,3.4,0,0,1,2.58.88c.34.44-.18,1.69-.52,2.49A23.77,23.77,0,0,1,124.75,100.16ZM122,97.89a6.89,6.89,0,0,0-1.49.29c-3.16,1.63-6.39,3.14-9.42,5a5.46,5.46,0,0,0-1.88,7.24c.28.57.85,1.37,1.34,1.41,1.75.14,2,1.36,2.44,2.64,1.73,5,4.2,9.76,9.08,12.22,3.07,1.55,4.65,3.21,4,6.66-.19,1,.43,1.23,1.35,1.29,4.38.27,4.37.29,4.43-4.12,0-.19-.07-.42,0-.56.38-.64.66-1.61,1.22-1.83,6.2-2.44,9.37-7.47,11.6-13.32.53-1.4.68-3,2.75-3,.27,0,.59-.43.81-.72a5.69,5.69,0,0,0-1.36-7.8,38.6,38.6,0,0,1-4.48-3.7,1.64,1.64,0,0,0-2.51-.23c-5.56,3.7-11.83,4.58-18.33,4.32-1.61-.07-2.15-1.15-1.42-2.62C120.6,100.1,121.19,99.22,122,97.89Zm-38.16,70.8c-3-3.13-5.69-5.92-8.39-8.73a.58.58,0,0,0-.18.11q-14.79,14.76-29.55,29.54A5.48,5.48,0,0,0,44.12,195a6,6,0,0,0,4.27,4.57c2.45.77,4.44-.09,6.14-1.79Q65,187.33,75.42,176.87C78.3,174,81.24,171.2,83.81,168.69Zm61.88-132c-3.49,8.38-14.73,8.88-18.55.08-4.45.82-8.68,5.38-8.59,9.48a70.7,70.7,0,0,1,36.12,4.11A12.07,12.07,0,0,0,145.69,36.68Z"/><path class="cls-2" d="M44.07,106.23c-.15,1.31-.24,2.62-.44,3.91a6.24,6.24,0,0,0,.41,3.93,6.85,6.85,0,0,1-2,8.4,5.48,5.48,0,0,0-1.27,2c-2.11,4.7-5.07,8.57-10.29,10-5.53,1.48-11-.85-14.46-5.94a17.79,17.79,0,0,1-1.53-2.59,11.43,11.43,0,0,0-3-4.38c-2-1.69-2-5.56-.71-8.26a4.63,4.63,0,0,0,.35-2.77c-1.09-5.21-.93-10.17,3-14.26a12.62,12.62,0,0,1,11.8-3.86,9.83,9.83,0,0,0,3.29,0c8.7-1.55,14.3,2.87,14.77,11.73,0,.69,0,1.38,0,2.07ZM28.34,131.57a27.1,27.1,0,0,0,4.72-2.29c2.72-1.88,4-4.84,5.22-7.86.3-.75,1.22-1.23,1.69-1.94a5.75,5.75,0,0,0,1.22-2.67c0-.78-.76-2.14-1.36-2.25a24.31,24.31,0,0,1-11.61-5.83,3.52,3.52,0,0,0-2.7-.21A5.68,5.68,0,0,0,23.37,110a16.83,16.83,0,0,1-8.68,4.58,2.18,2.18,0,0,0-1.31,1.67c0,1,.22,2.75.81,3,1.59.6,1.81,1.83,2.39,3.06a29.75,29.75,0,0,0,3.06,5.35C21.5,130.07,24.09,131.42,28.34,131.57ZM14.94,111a5.52,5.52,0,0,0,1.49-.41c1.86-1.24,3.71-2.51,5.51-3.84,3.91-2.89,5.89-2.71,9.74.22a44.18,44.18,0,0,0,7,3.83c.91.46,1.66.07,1.63-1-.07-2.86.17-5.8-.45-8.54-1-4.5-4.37-6.26-9-5.64-2,.28-4,0-6.08.13a15.79,15.79,0,0,0-4.93.66C14.39,98.52,12.41,104.41,14.94,111Z"/><path class="cls-2" d="M59.58,56.28c-6-.1-9.58-3.62-12.15-8.63A15.64,15.64,0,0,0,45,44.24c-1.72-1.83-2.09-5.22-.85-8a6.24,6.24,0,0,0,.34-2.6c0-2.49-.56-5.06-.08-7.44C45.78,19.51,52,15.74,58.72,17a8.65,8.65,0,0,0,3.12-.11c6.9-1.28,12.18,2.44,12.91,9.41.28,2.64-.13,5.35-.14,8a6,6,0,0,0,.44,2.3A6.79,6.79,0,0,1,73.12,45,10.7,10.7,0,0,0,72,46.81a64.11,64.11,0,0,1-5.12,6.84A9.49,9.49,0,0,1,59.58,56.28Zm.9-3.31a6.5,6.5,0,0,0,4.78-2.44,68.85,68.85,0,0,0,4.25-6.77c.38-.61.71-1.53,1.26-1.7,1.56-.49,1.57-1.62,1.5-2.83s-1-1.73-2.16-1.92a16.62,16.62,0,0,1-8.36-4c-2.56-2.2-2.93-2.28-5.55,0a17.37,17.37,0,0,1-8,4.34,2.41,2.41,0,0,0-1.36,1.82,4.63,4.63,0,0,0,1,2.41c.49.77,1.31,1.34,1.77,2.13.81,1.4,1.3,3,2.2,4.34A9.72,9.72,0,0,0,60.48,53ZM71.39,34.05c.08-2,.29-3.8.22-5.64-.22-6.54-4-9.4-10.34-7.94a5.47,5.47,0,0,1-2.57.08,8.37,8.37,0,0,0-9.52,3.09C46.7,26.81,47,30.35,48.21,34c2.61-.18,4.11-2,5.85-3.37,4-3.13,6-3.13,9.92.12A13.26,13.26,0,0,0,71.39,34.05Z"/><path class="cls-2" d="M137.06,34.77c-5.83-.24-8.94-3.21-11.19-7.46a20.47,20.47,0,0,0-2.2-3.15,6,6,0,0,1-.88-6.37,5.91,5.91,0,0,0,.25-3.92C122,8.75,123.89,4.05,128,1.64a10.84,10.84,0,0,1,7.6-1.33,7,7,0,0,0,2.57-.06C144.31-1,149,2.33,149.8,8.58c.22,1.85,0,3.74.08,5.61a17.82,17.82,0,0,0,.43,3.94,6.25,6.25,0,0,1-1.81,6.64,6.59,6.59,0,0,0-1.28,2c-1.42,3.05-3.37,5.62-6.51,7A21.54,21.54,0,0,1,137.06,34.77Zm-.7-3.4a6.06,6.06,0,0,0,.74,0,7.09,7.09,0,0,0,.91-.22c3.64-1,5.34-3.86,6.69-7.07a18.48,18.48,0,0,1,1.5-2.19c.4-.64,1-1.38.94-2s-.9-1.14-1.52-1.46c-2.42-1.24-5-2.16-7.3-3.62s-2.39-1.63-4.82.07c-2,1.37-4.18,2.36-6.26,3.57-.57.33-1.43.84-1.44,1.29a4.52,4.52,0,0,0,.91,2.16c.35.61,1,1.07,1.28,1.68.56,1,.9,2.21,1.51,3.22C131.06,29.37,133.15,31.24,136.36,31.37Zm10.32-20c0-.17,0-.67-.05-1.17-.35-5.28-3.24-7.47-8.43-6.42a5.68,5.68,0,0,1-2.37.18c-6.06-1.46-10.76,3-9.51,9.13.44,2.11.83,2.31,2.68,1.08,1.34-.9,2.53-2,3.88-2.93,2.68-1.75,4.34-1.58,6.82.4a21.5,21.5,0,0,0,3.2,2.29C146.17,15.65,146.66,15.32,146.68,11.32Z"/><path class="cls-2" d="M38.64,137.09a11.91,11.91,0,0,1-22.69.17c-5.21.59-10.61,5.58-11.86,11.41-.56,2.66-.35,5.48-.57,8.22a4,4,0,0,1-.71,2.22A1.63,1.63,0,0,1,.16,158c-1-11.24,3.07-21.24,15.42-24.25,2.66-.65,3.08-.36,3.79,2.29a8.12,8.12,0,0,0,15.78-.12c.64-2.49,1.1-2.76,3.7-2.18,9.3,2.1,15.28,9.44,15.55,19.11,0,1.51,0,3,0,4.52,0,1.18-.36,2.14-1.81,2.1s-1.58-1-1.64-2.07c-.15-2.87.11-5.85-.56-8.59C48.88,142.61,44.77,138.78,38.64,137.09Z"/><path class="cls-2" d="M85.8,176.57c.53.46,1.3.82,1.33,1.23A3.14,3.14,0,0,1,86.5,180c-2.45,2.6-5,5.09-7.54,7.62s-5.34,5.3-8,8c-.91.92-1.91,1.42-2.92.37s-.34-1.95.49-2.77q7.78-7.78,15.57-15.55A9.48,9.48,0,0,1,85.8,176.57Z"/><path class="cls-1" d="M151,141.39c1.72-2,1.72-2,.29-5.19a12.66,12.66,0,0,0,7.3-5.18c1.27-1.87,1.25-2.36-.45-3.74-1.9-1.54-2.17-3.62-1.77-5.8.81-4.44,1.82-8.84,2.63-13.27a39.15,39.15,0,0,0-.61-17.16c-2.65-9.93-9-16.3-18.7-19.38a35.32,35.32,0,0,0-21.83,0c-12.1,3.85-18,12.81-19.53,24.88-.92,7.39.87,14.45,2.43,21.56a37.94,37.94,0,0,1,.63,4.65,4.94,4.94,0,0,1-2.18,4.88c-1.31.88-1.06,2-.31,3.1a11.92,11.92,0,0,0,7.56,5.43c-1.4,3.42-1.4,3.42.4,5.27-.36.45-.72.93-1.1,1.39a13.94,13.94,0,0,0-3.25,8.44c0,1.09.15,2.05,1.5,2.17s1.71-.67,1.82-1.84c.5-5.53,3.54-8.91,8.84-10.41,2-.58,4-1.31,6.07-2a24.31,24.31,0,0,1,16.36.06c2.48.88,5,1.6,7.49,2.48a9.87,9.87,0,0,1,5.49,4.45c-.73.07-1.25.17-1.76.17-3.14,0-6.28,0-9.42,0-4.08,0-6.71,2.59-6.8,6.68-.07,3.51,0,7,0,10.55v3.09a68.52,68.52,0,0,1-6.89,0c-21-2.24-36.28-12.87-44.32-32.45-12.61-30.71,6.86-64.9,39.61-70.42,28-4.71,55.27,14.91,59.52,42.88a51.28,51.28,0,0,1-8.76,38.08,3.25,3.25,0,0,1-3.06,1.65c-4.14-.12-8.29-.07-12.43,0a2.18,2.18,0,0,1-2.25-1.25A43.57,43.57,0,0,0,151,141.39Zm-34.3,11.29v-4.12c0-1.09-.48-2-1.6-1.75a2.58,2.58,0,0,0-1.61,1.77c-.18,2.8-.09,5.62-.07,8.43,0,1.12.65,1.91,1.74,1.63a2.51,2.51,0,0,0,1.47-1.67A27.87,27.87,0,0,0,116.71,152.68Z"/><path class="cls-1" d="M131.9,170c.26,2.54.85,5-1.86,6.58a2.48,2.48,0,0,0-.43.37c-4.94,4.32-4.94,4.32-11.36,3.17-27.81-5-48.62-24.93-54.19-52.51a65.83,65.83,0,0,1,33.76-71A64.53,64.53,0,0,1,134.16,49a66.18,66.18,0,0,1,54.08,95c-.8,1.66-1.73,2.44-3.71,2.31-3.22-.2-6.46-.05-10-.05,11.34-18.64,13-37.58,3.24-56.86-7.23-14.28-19-23.53-34.4-27.77a54.89,54.89,0,0,0-68.57,42.61c-3.41,17.45.76,33.36,12.5,46.83S114,170.56,131.9,170Z"/><path class="cls-1" d="M124.69,185.78a45.22,45.22,0,0,1,5.09-4.35c4.67-3,6.36-6.92,5.79-12.47-.53-5.09-.13-10.28-.11-15.43,0-2.62,1.28-3.91,3.94-3.91q26.65,0,53.31,0c2.66,0,4,1.31,4,3.92q0,19.31,0,38.62a3.43,3.43,0,0,1-3.37,3.76,12.69,12.69,0,0,1-1.51,0q-25.71,0-51.43,0a6.34,6.34,0,0,1-3.39-.71,4.37,4.37,0,0,1-1.47-2.81,45,45,0,0,1-.07-5.45c0-2.46-.71-3-3.13-2.48-2.13.47-4.26,1-6.4,1.48-.33.07-.68.1-1,.15Zm35.37-12.56c0-1.87-.78-2.59-2.07-2.59a1.93,1.93,0,0,0-2.09,2.14,1.85,1.85,0,0,0,2.08,2.08C159.39,174.86,160,174.1,160.06,173.22Zm12.42-.36c0-1.66-.93-2.24-2.19-2.21a1.9,1.9,0,0,0-2,2.22,1.86,1.86,0,0,0,2.19,2A1.83,1.83,0,0,0,172.48,172.86Zm12.42-.12a1.91,1.91,0,0,0-2.17-2.09,2,2,0,0,0-2,2.21,2.11,2.11,0,0,0,4.21-.12Zm-39.21-2.07c-1.51.07-2.22.78-2.21,2.14a1.88,1.88,0,0,0,2.13,2.05,2.1,2.1,0,0,0,.08-4.19Z"/><path class="cls-1" d="M124.75,100.16a23.77,23.77,0,0,0,1.62-2.76c.34-.8.86-2.05.52-2.49a3.4,3.4,0,0,0-2.58-.88c-5.62.42-10.31,3.11-15,6-3.56,2.22-4.73,6.74-3.77,10.37a7,7,0,0,0,3.16,4.49,3.88,3.88,0,0,1,1.42,1.81c2.37,5.85,5.69,10.89,11.56,13.8,1.57.77.93,2.2.86,3.32a2.39,2.39,0,0,1-1.37,1.59c-3.41,1.24-6.87,2.36-10.33,3.47a3.43,3.43,0,0,1-1.19,0,6,6,0,0,1,.09-1.2,31.58,31.58,0,0,0,.83-3.06c.18-1.42-.6-2.19-2-2-2.75.43-4.46-1.1-6.19-3,3.47-3.84,2.56-8.21,1.67-12.52-1.12-5.4-2.57-10.72-2.55-16.31.07-17.19,11.12-28,28.33-27.42,7.9.26,14.89,2.77,20.3,8.77,3.62,4,5.11,9,5.9,14.2,1,6.82-.63,13.34-2.08,19.89a42.22,42.22,0,0,0-.86,4.43c-.35,3.19-.2,6.3,2.36,8.88-1.67,1.95-3.37,3.48-6.1,3.07-1.4-.21-2.26.4-2.09,1.82a41.39,41.39,0,0,0,1,4.48,4.32,4.32,0,0,1-1.34,0c-3.52-1.14-7-2.28-10.51-3.54a2.09,2.09,0,0,1-1.21-1.5c0-1.13-.74-2.58.82-3.35,5.79-2.88,9.13-7.83,11.53-13.61a4.89,4.89,0,0,1,1.81-2.14c4.2-2.67,4.15-11.05,0-14a55.82,55.82,0,0,1-6.19-5.43c-1.32-1.27-2-1.41-3.47-.14A22.05,22.05,0,0,1,124.75,100.16Z"/><path class="cls-1" d="M122,97.89c-.78,1.33-1.37,2.21-1.84,3.15-.73,1.47-.19,2.55,1.42,2.62,6.5.26,12.77-.62,18.33-4.32a1.64,1.64,0,0,1,2.51.23,38.6,38.6,0,0,0,4.48,3.7,5.69,5.69,0,0,1,1.36,7.8c-.22.29-.54.73-.81.72-2.07,0-2.22,1.6-2.75,3-2.23,5.85-5.4,10.88-11.6,13.32-.56.22-.84,1.19-1.22,1.83-.09.14,0,.37,0,.56-.06,4.41-.05,4.39-4.43,4.12-.92-.06-1.54-.3-1.35-1.29.64-3.45-.94-5.11-4-6.66-4.88-2.46-7.35-7.18-9.08-12.22-.43-1.28-.69-2.5-2.44-2.64-.49,0-1.06-.84-1.34-1.41a5.46,5.46,0,0,1,1.88-7.24c3-1.84,6.26-3.35,9.42-5A6.89,6.89,0,0,1,122,97.89Zm6.91,27a28,28,0,0,0,4.32-2.36c.46-.36.22-1.6.3-2.44-.79,0-1.85-.43-2.33-.06-1.6,1.23-2.92,1.33-4.53,0-.47-.38-1.53,0-2.32,0,.06.84-.21,2.1.24,2.45A27.56,27.56,0,0,0,128.88,124.92Z"/><path class="cls-1" d="M83.81,168.69c-2.57,2.51-5.51,5.32-8.39,8.18Q65,187.3,54.53,197.75c-1.7,1.7-3.69,2.56-6.14,1.79A6,6,0,0,1,44.12,195a5.48,5.48,0,0,1,1.57-5.36q14.73-14.81,29.55-29.54a.58.58,0,0,1,.18-.11C78.12,162.77,80.79,165.56,83.81,168.69Z"/><path class="cls-1" d="M145.69,36.68a12.07,12.07,0,0,1,9,13.67,70.7,70.7,0,0,0-36.12-4.11c-.09-4.1,4.14-8.66,8.59-9.48C131,45.56,142.2,45.06,145.69,36.68Z"/><path class="cls-1" d="M28.34,131.57c-4.25-.15-6.84-1.5-8.7-3.95a29.75,29.75,0,0,1-3.06-5.35c-.58-1.23-.8-2.46-2.39-3.06-.59-.23-.82-1.94-.81-3a2.18,2.18,0,0,1,1.31-1.67A16.83,16.83,0,0,0,23.37,110a5.68,5.68,0,0,1,2.15-1.46,3.52,3.52,0,0,1,2.7.21,24.31,24.31,0,0,0,11.61,5.83c.6.11,1.36,1.47,1.36,2.25A5.75,5.75,0,0,1,40,119.48c-.47.71-1.39,1.19-1.69,1.94-1.17,3-2.5,6-5.22,7.86A27.1,27.1,0,0,1,28.34,131.57Zm-1.19-1.86A13.6,13.6,0,0,0,30.52,128c.49-.43.29-1.63.4-2.48-.79-.07-1.77-.46-2.33-.13a2.28,2.28,0,0,1-2.72,0c-.55-.32-1.53.07-2.32.14.12.84-.07,2,.41,2.47A12.72,12.72,0,0,0,27.15,129.71Z"/><path class="cls-1" d="M14.94,111c-2.53-6.55-.55-12.44,5-14.63a15.79,15.79,0,0,1,4.93-.66c2-.12,4.09.15,6.08-.13,4.59-.62,7.93,1.14,9,5.64.62,2.74.38,5.68.45,8.54,0,1.11-.72,1.5-1.63,1a44.18,44.18,0,0,1-7-3.83c-3.85-2.93-5.83-3.11-9.74-.22-1.8,1.33-3.65,2.6-5.51,3.84A5.52,5.52,0,0,1,14.94,111Z"/><path class="cls-1" d="M60.48,53a9.72,9.72,0,0,1-8.68-4.62C50.9,47,50.41,45.41,49.6,44c-.46-.79-1.28-1.36-1.77-2.13a4.63,4.63,0,0,1-1-2.41,2.41,2.41,0,0,1,1.36-1.82,17.37,17.37,0,0,0,8-4.34c2.62-2.28,3-2.2,5.55,0a16.62,16.62,0,0,0,8.36,4c1.15.19,2.09.61,2.16,1.92s.06,2.34-1.5,2.83c-.55.17-.88,1.09-1.26,1.7a68.85,68.85,0,0,1-4.25,6.77A6.5,6.5,0,0,1,60.48,53Zm-1-1.27a15.77,15.77,0,0,0,3.32-1.88,2.37,2.37,0,0,0,.12-2.25,2.12,2.12,0,0,0-2.06-.29,2.11,2.11,0,0,1-2.68,0,2.11,2.11,0,0,0-2.06.37,2.16,2.16,0,0,0,.12,2.12A16.43,16.43,0,0,0,59.47,51.7Z"/><path class="cls-1" d="M71.39,34.05A13.26,13.26,0,0,1,64,30.73c-3.91-3.25-5.92-3.25-9.92-.12C52.32,32,50.82,33.8,48.21,34c-1.24-3.63-1.51-7.17,1-10.34a8.37,8.37,0,0,1,9.52-3.09,5.47,5.47,0,0,0,2.57-.08c6.32-1.46,10.12,1.4,10.34,7.94C71.68,30.25,71.47,32.09,71.39,34.05Z"/><path class="cls-1" d="M136.36,31.37c-3.21-.13-5.3-2-6.86-4.57-.61-1-.95-2.18-1.51-3.22-.33-.61-.93-1.07-1.28-1.68a4.52,4.52,0,0,1-.91-2.16c0-.45.87-1,1.44-1.29,2.08-1.21,4.3-2.2,6.26-3.57,2.43-1.7,2.41-1.62,4.82-.07s4.88,2.38,7.3,3.62c.62.32,1.45.9,1.52,1.46s-.54,1.35-.94,2a18.48,18.48,0,0,0-1.5,2.19c-1.35,3.21-3,6.05-6.69,7.07a7.09,7.09,0,0,1-.91.22A6.06,6.06,0,0,1,136.36,31.37Z"/><path class="cls-1" d="M146.68,11.32c0,4-.51,4.33-3.78,2.56a21.5,21.5,0,0,1-3.2-2.29c-2.48-2-4.14-2.15-6.82-.4-1.35.88-2.54,2-3.88,2.93-1.85,1.23-2.24,1-2.68-1.08-1.25-6.12,3.45-10.59,9.51-9.13a5.68,5.68,0,0,0,2.37-.18c5.19-1,8.08,1.14,8.43,6.42C146.66,10.65,146.67,11.15,146.68,11.32Z"/><path class="cls-2" d="M116.71,152.68a27.87,27.87,0,0,1-.07,4.29,2.51,2.51,0,0,1-1.47,1.67c-1.09.28-1.73-.51-1.74-1.63,0-2.81-.11-5.63.07-8.43a2.58,2.58,0,0,1,1.61-1.77c1.12-.27,1.6.66,1.6,1.75Z"/><path class="cls-2" d="M160.06,173.22c0,.88-.67,1.64-2.08,1.63a1.85,1.85,0,0,1-2.08-2.08,1.93,1.93,0,0,1,2.09-2.14C159.28,170.63,160.08,171.35,160.06,173.22Z"/><path class="cls-2" d="M172.48,172.86a1.83,1.83,0,0,1-2,2,1.86,1.86,0,0,1-2.19-2,1.9,1.9,0,0,1,2-2.22C171.55,170.62,172.46,171.2,172.48,172.86Z"/><path class="cls-2" d="M184.9,172.74a2.11,2.11,0,0,1-4.21.12,2,2,0,0,1,2-2.21A1.91,1.91,0,0,1,184.9,172.74Z"/><path class="cls-2" d="M145.69,170.67a2.1,2.1,0,0,1-.08,4.19,1.88,1.88,0,0,1-2.13-2.05C143.47,171.45,144.18,170.74,145.69,170.67Z"/><path class="cls-2" d="M128.88,124.92a27.56,27.56,0,0,1-4.32-2.38c-.45-.35-.18-1.61-.24-2.45.79,0,1.85-.39,2.32,0,1.61,1.31,2.93,1.21,4.53,0,.48-.37,1.54,0,2.33.06-.08.84.16,2.08-.3,2.44A28,28,0,0,1,128.88,124.92Z"/><path class="cls-2" d="M27.15,129.71A12.72,12.72,0,0,1,24,128c-.48-.48-.29-1.63-.41-2.47.79-.07,1.77-.46,2.32-.14a2.28,2.28,0,0,0,2.72,0c.56-.33,1.54.06,2.33.13-.11.85.09,2-.4,2.48A13.6,13.6,0,0,1,27.15,129.71Z"/><path class="cls-2" d="M59.47,51.7a16.43,16.43,0,0,1-3.24-2,2.16,2.16,0,0,1-.12-2.12,2.11,2.11,0,0,1,2.06-.37,2.11,2.11,0,0,0,2.68,0,2.12,2.12,0,0,1,2.06.29,2.37,2.37,0,0,1-.12,2.25A15.77,15.77,0,0,1,59.47,51.7Z"/></svg>